<svg width="79" height="60" viewBox="0 0 79 60" fill="none" xmlns="http://www.w3.org/2000/svg">
<g clip-path="url(#clip0_2422_1048)">
<path d="M15.3216 53.0016H16.4982L18.5157 56.3068L20.5018 53.0016H21.6784L22 60H20.7638L20.5426 55.1527L18.7761 58.0061H18.1831L16.4072 55.2247L16.186 59.9984H15L15.3216 53V53.0016Z" fill="#8E8E8E"/>
<path d="M27.7849 53H29.2151L32 60H30.4582L29.8195 58.2267H27.0912L26.4525 60H25L27.7832 53H27.7849ZM29.4246 57.1345L28.4562 54.4164L27.4758 57.1345H29.4246Z" fill="#8E8E8E"/>
<path d="M34 53H36.4063C36.8065 53 37.1473 53.0671 37.4256 53.1998C37.7054 53.3324 37.9315 53.5027 38.1027 53.7074C38.2738 53.9137 38.3988 54.1396 38.4792 54.3853C38.5595 54.6309 38.5982 54.865 38.5982 55.0877C38.5982 55.5282 38.5104 55.9195 38.3363 56.2585C38.1622 56.5974 37.8929 56.8692 37.5313 57.0723L39 60H37.6458L36.3586 57.2393H35.1548V60H34.0015V53H34ZM36.4152 56.1488C36.7202 56.1488 36.9568 56.0505 37.1265 55.854C37.2946 55.6575 37.3795 55.4201 37.3795 55.1401C37.3795 54.8405 37.2902 54.5949 37.1131 54.4065C36.9345 54.2182 36.7024 54.1233 36.4167 54.1233H35.1548V56.1488H36.4167H36.4152Z" fill="#8E8E8E"/>
<path d="M43.0015 53H45.407C45.8074 53 46.1483 53.0671 46.4266 53.1998C46.7065 53.3324 46.9327 53.5027 47.1039 53.7074C47.2751 53.9137 47.4016 54.1396 47.4805 54.3853C47.5609 54.6309 47.5996 54.865 47.5996 55.0877C47.5996 55.5282 47.5118 55.9195 47.3376 56.2585C47.162 56.5974 46.894 56.8692 46.5308 57.0723L48 60H46.6454L45.3578 57.2393H44.1536V60H43V53H43.0015ZM45.4174 56.1488C45.7225 56.1488 45.9592 56.0505 46.1274 55.854C46.2956 55.6575 46.3805 55.4201 46.3805 55.1401C46.3805 54.8405 46.2897 54.5949 46.1125 54.4065C45.9339 54.2182 45.7017 54.1233 45.4159 54.1233H44.1551V56.1488H45.4159H45.4174Z" fill="#8E8E8E"/>
<path d="M51 53H52V60H51V53Z" fill="#8E8E8E"/>
<path d="M59.5 60C59.009 60 58.5526 59.9099 58.1293 59.7251C57.7044 59.5434 57.3361 59.2933 57.0198 58.9734C56.7035 58.655 56.4548 58.2838 56.2723 57.8582C56.0913 57.4342 56 56.9791 56 56.4946C56 56.01 56.0913 55.5565 56.2723 55.1309C56.4548 54.7069 56.7019 54.3373 57.0151 54.0204C57.3267 53.7051 57.6965 53.4566 58.123 53.2734C58.551 53.0916 59.009 53 59.5 53C59.991 53 60.449 53.0916 60.8723 53.2734C61.2956 53.4566 61.6655 53.7051 61.9818 54.0204C62.2981 54.3357 62.5468 54.7053 62.7277 55.1309C62.9087 55.5565 63 56.01 63 56.4946C63 56.9791 62.9087 57.4342 62.7277 57.8582C62.5468 58.2838 62.2981 58.655 61.9818 58.9734C61.6655 59.2918 61.2956 59.5418 60.8723 59.7251C60.449 59.9084 59.991 60 59.5 60ZM59.5 58.8165C59.8289 58.8165 60.1295 58.7528 60.397 58.627C60.6661 58.5012 60.8943 58.3304 61.0832 58.1145C61.2705 57.8986 61.4152 57.6485 61.516 57.3628C61.6167 57.077 61.667 56.7788 61.667 56.4666C61.667 56.1544 61.6167 55.8485 61.516 55.5658C61.4152 55.2847 61.2705 55.0362 61.0832 54.8234C60.8943 54.6106 60.6646 54.4444 60.397 54.3202C60.1279 54.1975 59.8289 54.1353 59.5 54.1353C59.1711 54.1353 58.8626 54.1975 58.5967 54.3202C58.3307 54.4429 58.1041 54.6106 57.9152 54.8234C57.7264 55.0362 57.5832 55.2831 57.4825 55.5658C57.3817 55.8485 57.3298 56.1482 57.3298 56.4666C57.3298 56.785 57.3802 57.077 57.4825 57.3628C57.5832 57.6485 57.7264 57.8986 57.9152 58.1145C58.1041 58.3304 58.3307 58.5012 58.5967 58.627C58.8626 58.7528 59.1632 58.8165 59.5 58.8165Z" fill="#8E8E8E"/>
<path d="M67.3456 54.1645H65V53H71V54.1645H68.6544V60H67.3456V54.1645Z" fill="#8E8E8E"/>
<path d="M75.3449 54.1645H73V53H79V54.1645H76.6534V60H75.3449V54.1645Z" fill="#8E8E8E"/>
<path d="M50.3478 45.3678H62L42.501 0.715019L32.7224 5.28102L39.5395 20.8237L36.3597 28.0653L24.1595 0L14.2742 4.34725L22.2132 22.2815C22.2035 22.306 22.1922 22.3288 22.1825 22.3533C17.2843 33.6646 11.2723 36.768 10.6871 36.9916C9.29362 37.5368 7.79668 37.8421 6.21245 37.8421C5.73071 37.8421 5.25221 37.8144 4.79311 37.7703L0 47.6157C1.58585 48.4972 3.3576 49 5.25221 49C7.65119 49 9.84325 48.1985 11.6635 46.8729L11.6457 46.9088C11.6457 46.9088 16.1672 44.7034 21.004 32.6378C21.004 32.6264 22.7822 28.7722 23.7327 26.3218L23.8281 26.0427L32.3409 45.3678H43.9867L37.9892 31.7743L41.169 24.5424L50.3462 45.3678H50.3478Z" fill="#8E8E8E"/>
</g>
<defs>
<clipPath id="clip0_2422_1048">
<rect width="79" height="60" fill="white"/>
</clipPath>
</defs>
</svg>
