<svg width="137" height="32" viewBox="0 0 137 32" fill="none" xmlns="http://www.w3.org/2000/svg">
<g clip-path="url(#clip0_2422_992)">
<path d="M46.4084 18H43.1235L45.0703 7.10397H41L41.5642 4H53L52.4362 7.10397H48.3548L46.4084 18Z" fill="#8E8E8E"/>
<path d="M58.6166 14.9437C59.1279 14.9437 59.6335 14.8334 60.1339 14.6122C60.6341 14.3917 61.0742 14.0834 61.4539 13.6881C61.8338 13.2924 62.1442 12.8262 62.3854 12.2881C62.626 11.7501 62.7467 11.1536 62.7467 10.4978C62.7467 9.99925 62.6608 9.53772 62.4892 9.11372C62.3173 8.68998 62.0785 8.32483 61.7717 8.01836C61.465 7.71225 61.109 7.47536 60.7038 7.30768C60.2982 7.14055 59.8657 7.0568 59.4053 7.0568C58.8794 7.0568 58.3703 7.16717 57.8773 7.38798C57.3844 7.6088 56.9443 7.91527 56.5573 8.30694C56.1701 8.69897 55.8564 9.16558 55.615 9.70713C55.3742 10.2486 55.2538 10.8469 55.2538 11.5027C55.2538 12.0016 55.3393 12.4608 55.5109 12.8812C55.6828 13.3016 55.9219 13.6648 56.2287 13.9713C56.5356 14.2774 56.8896 14.5162 57.2913 14.6872C57.6928 14.8581 58.1347 14.9436 58.6168 14.9436L58.6166 14.9437ZM59.6462 4.00009C60.5593 4.00009 61.4047 4.16041 62.1824 4.48105C62.9603 4.80169 63.6302 5.24523 64.1925 5.81176C64.7549 6.37792 65.1966 7.04418 65.5182 7.81026C65.8392 8.57599 66 9.39703 66 10.2733C66 11.3707 65.7825 12.3895 65.3481 13.33C64.9138 14.2702 64.3418 15.0882 63.6339 15.7829C62.9254 16.4772 62.111 17.0208 61.1908 17.4122C60.2705 17.8044 59.325 18 58.3536 18C57.4405 18 56.5954 17.8397 55.8175 17.5194C55.0398 17.1988 54.3696 16.7533 53.8072 16.1835C53.245 15.6136 52.8032 14.9455 52.4818 14.1797C52.1604 13.4139 52 12.5927 52 11.716C52 10.6189 52.2172 9.60194 52.6519 8.66482C53.0863 7.72833 53.6578 6.9122 54.3661 6.21751C55.0743 5.52282 55.8887 4.97991 56.8092 4.58787C57.7293 4.1962 58.675 4 59.6461 4L59.6462 4.00009Z" fill="#8E8E8E"/>
<path d="M74.6165 14.9437C75.1279 14.9437 75.6335 14.8334 76.1338 14.6122C76.6341 14.3917 77.0741 14.0834 77.4538 13.6881C77.8338 13.2924 78.1441 12.8262 78.3854 12.2881C78.626 11.7501 78.7466 11.1536 78.7466 10.4978C78.7466 9.99925 78.6608 9.53772 78.4892 9.11372C78.3172 8.68998 78.0786 8.32483 77.7717 8.01836C77.4649 7.71225 77.1089 7.47536 76.7037 7.30768C76.2982 7.14055 75.8657 7.0568 75.4053 7.0568C74.8794 7.0568 74.3703 7.16717 73.8773 7.38798C73.3843 7.6088 72.9442 7.91527 72.5573 8.30694C72.1701 8.69897 71.8563 9.16558 71.615 9.70713C71.3741 10.2486 71.2538 10.8469 71.2538 11.5027C71.2538 12.0016 71.3393 12.4608 71.5109 12.8812C71.6828 13.3016 71.9219 13.6648 72.2287 13.9713C72.5356 14.2774 72.8896 14.5162 73.2913 14.6872C73.6928 14.8581 74.1348 14.9436 74.6167 14.9436L74.6165 14.9437ZM75.6461 4.00009C76.5592 4.00009 77.4047 4.16041 78.1823 4.48105C78.9602 4.80169 79.6301 5.24523 80.1925 5.81176C80.7548 6.37792 81.1965 7.04418 81.5181 7.81026C81.8391 8.57599 82 9.39703 82 10.2733C82 11.3707 81.7824 12.3895 81.3481 13.33C80.9137 14.2702 80.3418 15.0882 79.6339 15.7829C78.9253 16.4772 78.111 17.0208 77.1908 17.4122C76.2704 17.8044 75.325 18 74.3536 18C73.4405 18 72.5953 17.8397 71.8174 17.5194C71.0398 17.1988 70.3696 16.7533 69.8072 16.1835C69.2449 15.6136 68.8032 14.9455 68.4818 14.1797C68.1604 13.4139 68 12.5927 68 11.716C68 10.6189 68.2172 9.60194 68.6519 8.66482C69.0863 7.72833 69.6578 6.9122 70.3661 6.21751C71.0743 5.52282 71.8887 4.97991 72.8091 4.58787C73.7292 4.1962 74.6749 4 75.646 4L75.6461 4.00009Z" fill="#8E8E8E"/>
<path d="M85.4356 4H88.6225L86.7338 14.8852H93L92.453 18H83L85.4356 4Z" fill="#8E8E8E"/>
<path d="M99.6498 9.5132H102.103C102.575 9.5132 102.989 9.37576 103.346 9.10069C103.703 8.82581 103.882 8.44974 103.882 7.97212C103.882 7.63211 103.766 7.32467 103.534 7.04951C103.301 6.77473 102.985 6.63738 102.585 6.63738H100.153L99.6498 9.5132ZM101.428 15.287C101.971 15.287 102.446 15.1315 102.853 14.8202C103.261 14.5091 103.464 14.0787 103.464 13.5286C103.464 13.1452 103.33 12.7907 103.062 12.4652C102.794 12.1396 102.439 11.9768 101.996 11.9768H99.2321L98.6428 15.287H101.428ZM104.846 10.772C105.139 10.9674 105.41 11.1989 105.66 11.4664C105.868 11.7054 106.059 12.0059 106.234 12.3673C106.409 12.7293 106.496 13.1562 106.496 13.6481C106.496 14.2412 106.375 14.8002 106.132 15.325C105.889 15.8495 105.553 16.3125 105.125 16.7143C104.696 17.1155 104.196 17.4305 103.625 17.6584C103.053 17.8863 102.439 18 101.782 18H95L97.4321 4H103.379C103.935 4 104.437 4.10322 104.884 4.30938C105.33 4.51545 105.711 4.78516 106.025 5.11769C106.339 5.45078 106.58 5.83257 106.748 6.26297C106.916 6.69328 107 7.13991 107 7.60333C107 8.21093 106.887 8.71374 106.663 9.11176C106.437 9.50988 106.193 9.83512 105.929 10.0882C105.6 10.3633 105.239 10.5914 104.847 10.7721L104.846 10.772Z" fill="#8E8E8E"/>
<path d="M115.617 14.9437C116.128 14.9437 116.633 14.8334 117.134 14.6122C117.634 14.3917 118.074 14.0834 118.454 13.6881C118.834 13.2924 119.144 12.8262 119.385 12.2881C119.626 11.7501 119.747 11.1536 119.747 10.4978C119.747 9.99925 119.661 9.53772 119.489 9.11372C119.317 8.68998 119.079 8.32483 118.772 8.01836C118.465 7.71225 118.109 7.47536 117.704 7.30768C117.298 7.14055 116.866 7.0568 116.405 7.0568C115.879 7.0568 115.37 7.16717 114.877 7.38798C114.384 7.6088 113.944 7.91527 113.557 8.30694C113.17 8.69897 112.856 9.16558 112.615 9.70713C112.374 10.2486 112.254 10.8469 112.254 11.5027C112.254 12.0016 112.339 12.4608 112.511 12.8812C112.683 13.3016 112.922 13.6648 113.229 13.9713C113.535 14.2774 113.889 14.5162 114.291 14.6872C114.693 14.8581 115.135 14.9436 115.617 14.9436L115.617 14.9437ZM116.646 4.00009C117.559 4.00009 118.405 4.16041 119.182 4.48105C119.96 4.80169 120.63 5.24523 121.192 5.81176C121.755 6.37792 122.196 7.04418 122.518 7.81026C122.839 8.57599 123 9.39703 123 10.2733C123 11.3707 122.782 12.3895 122.348 13.33C121.914 14.2702 121.342 15.0882 120.634 15.7829C119.925 16.4772 119.111 17.0208 118.191 17.4122C117.27 17.8044 116.325 18 115.354 18C114.44 18 113.595 17.8397 112.817 17.5194C112.04 17.1988 111.37 16.7533 110.807 16.1835C110.245 15.6136 109.803 14.9455 109.482 14.1797C109.161 13.4139 109 12.5927 109 11.716C109 10.6189 109.217 9.60194 109.652 8.66482C110.086 7.72833 110.658 6.9122 111.366 6.21751C112.074 5.52282 112.889 4.97991 113.809 4.58787C114.729 4.1962 115.675 4 116.646 4L116.646 4.00009Z" fill="#8E8E8E"/>
<path d="M128.144 4L129.973 8.55832L133.482 4H137L131.609 10.8913L134.783 18H131.297L129.274 13.2246L125.518 18H122L127.639 10.8913L124.668 4H128.144Z" fill="#8E8E8E"/>
<path d="M5.35036 8.04153L1 32H7.68289L12 8L5.35036 8.04153Z" fill="#8E8E8E"/>
<path d="M16.7393 7L18 0.0391083L7.61765 0C3.88191 0 0.682264 2.94626 0 7H16.7393Z" fill="#8E8E8E"/>
<path d="M18.352 6.78029H26.5546L25.4666 12.8583H17.2033L15.9344 19.563L24.1231 19.6387L23.463 23.3761H23.4669L23.4533 23.4321L23.1558 25.1172L10.294 25.1033L9 32H22.2429H23.18C26.3886 32 29.1336 29.7153 29.6884 26.5826L30.9971 19.1944C31.1892 18.1104 31.0508 17.1823 30.6655 16.4198C31.3956 15.7951 31.9088 14.9221 32.1211 13.7242L33.3508 6.78038H38C37.3018 2.85382 34.0275 0 30.2043 0H19.6323L18.3521 6.78038L18.352 6.78029Z" fill="#8E8E8E"/>
<path d="M44.8317 25.179C44.9436 25.2381 45.047 25.3084 45.1393 25.3955C45.2147 25.4714 45.2845 25.5642 45.3489 25.6795C45.4132 25.7948 45.4439 25.9325 45.4439 26.0928C45.4439 26.284 45.4048 26.4583 45.3266 26.6157C45.2483 26.776 45.142 26.9137 45.0106 27.0319C44.8792 27.1527 44.7282 27.2456 44.5578 27.3102C44.3873 27.3776 44.2111 27.4114 44.0239 27.4114H42L42.7716 23.0479H44.5103C44.6864 23.0479 44.8458 23.0789 44.9828 23.1379C45.1197 23.197 45.2399 23.2757 45.3378 23.3741C45.4356 23.4726 45.511 23.5878 45.5641 23.7172C45.6173 23.8465 45.6424 23.9815 45.6424 24.1192C45.6424 24.33 45.6005 24.5043 45.5139 24.6393C45.4272 24.7771 45.335 24.884 45.2372 24.9599C45.117 25.0526 44.9828 25.1258 44.8318 25.1792L44.8317 25.179ZM43.1377 23.4921L42.8833 24.9315H44.2894C44.4152 24.9315 44.5326 24.909 44.6444 24.8668C44.7563 24.8247 44.8541 24.7656 44.9352 24.6953C45.0163 24.6251 45.0805 24.5464 45.128 24.4535C45.1755 24.3608 45.1978 24.2652 45.1978 24.1668C45.1978 24.0065 45.1335 23.8546 45.0022 23.7085C44.8708 23.5651 44.678 23.492 44.4263 23.492H43.1376L43.1377 23.4921ZM42.7995 25.3786L42.5255 26.9672H44.0434C44.1693 26.9672 44.2894 26.9447 44.4041 26.8969C44.5187 26.8491 44.6221 26.7872 44.7116 26.7113C44.7982 26.6354 44.8681 26.5482 44.9212 26.4498C44.9743 26.3515 44.9995 26.2503 44.9995 26.1434C44.9995 26.0562 44.9828 25.9663 44.9464 25.8734C44.91 25.7807 44.8569 25.6992 44.787 25.626C44.7171 25.553 44.6388 25.4939 44.5466 25.4461C44.4544 25.4011 44.3565 25.3787 44.2503 25.3787H42.7995V25.3786ZM48.6504 23.0001C48.9214 23.0001 49.1675 23.0478 49.3884 23.1407C49.6119 23.2363 49.8049 23.3713 49.9671 23.5455C50.1264 23.7198 50.2522 23.925 50.3416 24.1641C50.4311 24.403 50.473 24.6645 50.4701 24.9428C50.4701 25.3055 50.4086 25.6429 50.2885 25.9493C50.1627 26.2558 49.9977 26.5201 49.7881 26.7478C49.5783 26.9755 49.3407 27.1498 49.0753 27.2708C48.8041 27.3973 48.5245 27.4592 48.2366 27.4592C47.9655 27.4592 47.7194 27.4114 47.4958 27.3185C47.2695 27.223 47.0765 27.088 46.9171 26.9137C46.7578 26.7394 46.632 26.5314 46.5426 26.2924C46.4504 26.0534 46.4084 25.7947 46.4112 25.5164C46.4112 25.1537 46.4756 24.8164 46.6014 24.5099C46.7271 24.2034 46.8921 23.9392 47.0961 23.7114C47.3058 23.4838 47.5434 23.3094 47.8118 23.1885C48.0829 23.0619 48.3625 23.0001 48.6504 23.0001ZM48.2646 27.0149C48.4827 27.0149 48.6951 26.9643 48.9047 26.8631C49.1172 26.7648 49.3073 26.6241 49.475 26.447C49.64 26.2699 49.7769 26.0562 49.8831 25.8117C49.9894 25.567 50.0397 25.2972 50.0369 24.9991C50.0369 24.7742 50.0005 24.5661 49.9307 24.3749C49.8579 24.1837 49.7573 24.0179 49.6288 23.8801C49.5002 23.7422 49.3492 23.6327 49.176 23.5567C49.0026 23.4808 48.8125 23.4414 48.6085 23.4442C48.3904 23.4442 48.178 23.4949 47.9683 23.596C47.7558 23.6944 47.5686 23.835 47.4037 24.0121C47.236 24.1893 47.1018 24.4001 46.9983 24.6448C46.8949 24.8894 46.8446 25.1621 46.8446 25.4601C46.8446 25.6935 46.881 25.9016 46.9508 26.09C47.0263 26.2784 47.127 26.4414 47.2555 26.5791C47.3841 26.717 47.5322 26.8265 47.7028 26.9025C47.8761 26.9785 48.0634 27.015 48.2646 27.015L48.2646 27.0149ZM53.3719 25.179C53.4838 25.2381 53.5871 25.3084 53.6794 25.3955C53.752 25.4714 53.8219 25.5642 53.8862 25.6795C53.9505 25.7948 53.9813 25.9325 53.9813 26.0928C53.9813 26.284 53.9421 26.4611 53.8638 26.6269C53.7856 26.7928 53.6765 26.9362 53.5397 27.0571C53.4027 27.1808 53.2405 27.2792 53.0561 27.3495C52.8715 27.4226 52.6787 27.4592 52.4746 27.4592C52.251 27.4592 52.0497 27.4226 51.8681 27.3495C51.6864 27.2793 51.5298 27.178 51.404 27.0515C51.2782 26.925 51.1777 26.7844 51.1049 26.6269C51.0295 26.4695 50.9931 26.3008 50.9931 26.1236H51.4404C51.4711 26.4019 51.5746 26.6185 51.7479 26.776C51.9212 26.9362 52.1756 27.0149 52.5139 27.0149C52.6564 27.0149 52.7934 26.9924 52.9191 26.9447C53.0449 26.8969 53.1511 26.8322 53.2406 26.7507C53.3274 26.6691 53.3972 26.5736 53.4504 26.4696C53.5035 26.3655 53.5286 26.253 53.5286 26.1322C53.5286 25.9551 53.4588 25.7863 53.3217 25.6234C53.1847 25.4602 52.975 25.3787 52.6928 25.3787H52.2399L52.3153 24.9316H52.8354C52.9947 24.9316 53.1316 24.9064 53.2518 24.8557C53.3693 24.8079 53.4672 24.7432 53.5482 24.6673C53.6292 24.5915 53.6879 24.5099 53.7271 24.4171C53.7661 24.3244 53.7857 24.2316 53.7857 24.1388C53.7857 23.9617 53.7131 23.8014 53.565 23.6581C53.4169 23.5148 53.1764 23.4444 52.8493 23.4444C52.5866 23.4444 52.3658 23.5231 52.184 23.6806C52.0024 23.8409 51.885 24.0264 51.8262 24.24H51.3594C51.4516 23.8886 51.6361 23.5934 51.9129 23.3544C52.1896 23.1182 52.5194 23.0002 52.908 23.0002C53.1121 23.0002 53.2965 23.0283 53.4615 23.0874C53.6265 23.1465 53.7633 23.2279 53.878 23.3291C53.9927 23.4332 54.0792 23.5485 54.138 23.6806C54.1968 23.8127 54.2275 23.9533 54.2275 24.0995C54.2275 24.3104 54.1828 24.4847 54.0961 24.6168C54.0066 24.7518 53.906 24.8642 53.7942 24.9514C53.6684 25.0498 53.5287 25.1257 53.3721 25.1791L53.3719 25.179ZM56.8438 27.4114L55.9045 24.0404L55.3176 27.4114H54.8675L55.6391 23.0479H56.0639L57.1178 26.8632L59.5163 23.0479H59.9776L59.206 27.4114H58.7644L59.3569 24.0404L57.238 27.4114H56.8438ZM62.896 23.0001C63.167 23.0001 63.4131 23.0478 63.6339 23.1407C63.8575 23.2363 64.0504 23.3713 64.2126 23.5455C64.3719 23.7198 64.4977 23.925 64.5872 24.1641C64.6767 24.403 64.7185 24.6645 64.7157 24.9428C64.7157 25.3055 64.6542 25.6429 64.5341 25.9493C64.4082 26.2558 64.2433 26.5201 64.0336 26.7478C63.8239 26.9755 63.5863 27.1498 63.3208 27.2708C63.0497 27.3973 62.7701 27.4592 62.4822 27.4592C62.2111 27.4592 61.965 27.4114 61.7414 27.3185C61.515 27.223 61.3221 27.088 61.1627 26.9137C61.0034 26.7394 60.8776 26.5314 60.7882 26.2924C60.696 26.0534 60.654 25.7947 60.6568 25.5164C60.6568 25.1537 60.7211 24.8164 60.8469 24.5099C60.9727 24.2034 61.1377 23.9392 61.3417 23.7114C61.5514 23.4838 61.789 23.3094 62.0573 23.1885C62.3285 23.0619 62.6081 23.0001 62.896 23.0001ZM62.5101 27.0149C62.7283 27.0149 62.9407 26.9643 63.1503 26.8631C63.3628 26.7648 63.5528 26.6241 63.7206 26.447C63.8856 26.2699 64.0225 26.0562 64.1287 25.8117C64.235 25.567 64.2853 25.2972 64.2824 24.9991C64.2824 24.7742 64.2461 24.5661 64.1762 24.3749C64.1035 24.1837 64.0029 24.0179 63.8743 23.8801C63.7458 23.7422 63.5948 23.6327 63.4216 23.5567C63.2482 23.4808 63.0581 23.4414 62.8541 23.4442C62.6359 23.4442 62.4236 23.4949 62.2139 23.596C62.0014 23.6944 61.8142 23.835 61.6493 24.0121C61.4816 24.1893 61.3474 24.4001 61.2439 24.6448C61.1404 24.8894 61.0902 25.1621 61.0902 25.4601C61.0902 25.6935 61.1266 25.9016 61.1964 26.09C61.2719 26.2784 61.3725 26.4414 61.5011 26.5791C61.6296 26.717 61.7778 26.8265 61.9484 26.9025C62.1217 26.9785 62.309 27.015 62.5102 27.015L62.5101 27.0149ZM68.4543 23.0478L68.0908 25.1312L70.2797 23.0478H70.9003L68.6276 25.1593L70.2797 27.4113H69.7066L68.0908 25.1311L67.6856 27.4113H67.241L68.007 23.0478H68.4543ZM65.22 27.4113H64.5883L67.1013 25.0918L65.6252 23.0478H66.1871L67.6463 25.1312L65.2199 27.4114L65.22 27.4113ZM75.2528 23.0478L74.4897 27.4113H74.0396L74.3974 25.3786H71.7333L71.3839 27.4113H70.9338L71.7054 23.0478H72.1471L71.8173 24.9315H74.4785L74.8112 23.0478H75.2529H75.2528ZM78.1768 23.0001C78.4478 23.0001 78.6939 23.0478 78.9148 23.1407C79.1383 23.2363 79.3313 23.3713 79.4935 23.5455C79.6528 23.7198 79.7786 23.925 79.868 24.1641C79.9575 24.403 79.9994 24.6645 79.9965 24.9428C79.9965 25.3055 79.935 25.6429 79.8149 25.9493C79.6891 26.2558 79.5241 26.5201 79.3145 26.7478C79.1047 26.9755 78.8672 27.1498 78.6017 27.2708C78.3305 27.3973 78.0509 27.4592 77.7631 27.4592C77.4919 27.4592 77.2458 27.4114 77.0222 27.3185C76.7959 27.223 76.6029 27.088 76.4435 26.9137C76.2842 26.7394 76.1584 26.5314 76.069 26.2924C75.9768 26.0534 75.9348 25.7947 75.9376 25.5164C75.9376 25.1537 76.002 24.8164 76.1278 24.5099C76.2535 24.2034 76.4185 23.9392 76.6225 23.7114C76.8322 23.4838 77.0699 23.3094 77.3382 23.1885C77.6093 23.0619 77.889 23.0001 78.1768 23.0001ZM77.791 27.0149C78.0091 27.0149 78.2215 26.9643 78.4311 26.8631C78.6436 26.7648 78.8337 26.6241 79.0014 26.447C79.1664 26.2699 79.3033 26.0562 79.4095 25.8117C79.5158 25.567 79.5661 25.2972 79.5633 24.9991C79.5633 24.7742 79.527 24.5661 79.4571 24.3749C79.3844 24.1837 79.2837 24.0179 79.1552 23.8801C79.0266 23.7422 78.8756 23.6327 78.7024 23.5567C78.529 23.4808 78.3389 23.4414 78.1349 23.4442C77.9168 23.4442 77.7044 23.4949 77.4947 23.596C77.2822 23.6944 77.095 23.835 76.9301 24.0121C76.7624 24.1893 76.6282 24.4001 76.5247 24.6448C76.4213 24.8894 76.371 25.1621 76.371 25.4601C76.371 25.6935 76.4074 25.9016 76.4772 26.09C76.5527 26.2784 76.6534 26.4414 76.7819 26.5791C76.9105 26.717 77.0586 26.8265 77.2292 26.9025C77.4025 26.9785 77.5898 27.015 77.7911 27.015L77.791 27.0149ZM84.3379 24.5352C84.3128 24.4143 84.2624 24.2905 84.1898 24.1612C84.1143 24.0319 84.0221 23.9166 83.913 23.8125C83.8013 23.7057 83.6671 23.6158 83.5133 23.5454C83.3596 23.4751 83.1863 23.4414 82.999 23.4442C82.7809 23.4442 82.5629 23.492 82.3476 23.5848C82.1323 23.6832 81.9423 23.8182 81.7745 23.9925C81.6041 24.1668 81.467 24.3804 81.3608 24.6306C81.2546 24.8809 81.2015 25.1564 81.2015 25.46C81.2015 25.6991 81.2379 25.9127 81.3133 26.1039C81.3888 26.2951 81.4922 26.4581 81.6208 26.5931C81.7494 26.7281 81.9003 26.8321 82.0708 26.9051C82.2413 26.981 82.4202 27.0176 82.6131 27.0148C82.9291 27.0148 83.2309 26.9164 83.5244 26.7224C83.8152 26.5284 84.036 26.2641 84.187 25.924H84.6538C84.5672 26.1516 84.4554 26.3569 84.3128 26.5453C84.1702 26.7337 84.0136 26.894 83.8375 27.0288C83.6614 27.1638 83.4657 27.2707 83.2533 27.3466C83.0408 27.4253 82.8228 27.4618 82.6019 27.4591C82.3335 27.4591 82.0875 27.4113 81.8612 27.3184C81.6376 27.2229 81.4446 27.0879 81.2797 26.9164C81.1148 26.7449 80.989 26.5398 80.8996 26.3007C80.8073 26.0617 80.7654 25.8003 80.7682 25.5163C80.7682 25.1536 80.8325 24.8163 80.9583 24.5041C81.084 24.1949 81.2491 23.9278 81.4531 23.7057C81.6627 23.4837 81.9031 23.3092 82.1744 23.1884C82.4483 23.0618 82.7306 23 83.0186 23C83.491 23 83.8823 23.1406 84.1925 23.4246C84.5029 23.7085 84.7069 24.0796 84.7992 24.5351H84.3379V24.5352ZM85.5148 23.0478H88.9196L88.8442 23.4921H87.3598L86.6722 27.4114H86.2277L86.9182 23.4921H85.4393L85.5148 23.0478ZM93.3057 23.0478L92.5425 27.4113H92.0925L92.7297 23.8238L89.3836 27.4113H88.9866L89.7582 23.0478H90.1998L89.5709 26.6353L92.9114 23.0478H93.3056H93.3057ZM98.821 25.179C98.9329 25.2381 99.0363 25.3084 99.1286 25.3955C99.204 25.4714 99.2738 25.5642 99.3382 25.6795C99.4026 25.7948 99.4332 25.9325 99.4332 26.0928C99.4332 26.284 99.3942 26.4583 99.3159 26.6157C99.2376 26.776 99.1313 26.9137 98.9999 27.0319C98.8686 27.1527 98.7176 27.2456 98.5471 27.3102C98.3766 27.3776 98.2005 27.4114 98.0133 27.4114H95.9893L96.7609 23.0479H98.4996C98.6757 23.0479 98.8351 23.0789 98.9721 23.1379C99.1091 23.197 99.2292 23.2757 99.3271 23.3741C99.4249 23.4726 99.5004 23.5878 99.5535 23.7172C99.6066 23.8465 99.6317 23.9815 99.6317 24.1192C99.6317 24.33 99.5899 24.5043 99.5032 24.6393C99.4165 24.7771 99.3243 24.884 99.2265 24.9599C99.1063 25.0526 98.9721 25.1258 98.8211 25.1792L98.821 25.179ZM97.127 23.4921L96.8726 24.9315H98.2787C98.4045 24.9315 98.522 24.909 98.6337 24.8668C98.7456 24.8247 98.8434 24.7656 98.9245 24.6953C99.0056 24.6251 99.0698 24.5464 99.1174 24.4535C99.1648 24.3608 99.1871 24.2652 99.1871 24.1668C99.1871 24.0065 99.1228 23.8546 98.9915 23.7085C98.8602 23.5651 98.6673 23.492 98.4156 23.492H97.1269L97.127 23.4921ZM96.7888 25.3786L96.5148 26.9672H98.0328C98.1586 26.9672 98.2787 26.9447 98.3934 26.8969C98.508 26.8491 98.6115 26.7872 98.7009 26.7113C98.7876 26.6354 98.8574 26.5482 98.9105 26.4498C98.9636 26.3515 98.9888 26.2503 98.9888 26.1434C98.9888 26.0562 98.9721 25.9663 98.9357 25.8734C98.8993 25.7807 98.8462 25.6992 98.7763 25.626C98.7064 25.553 98.6282 25.4939 98.5359 25.4461C98.4437 25.4011 98.3458 25.3787 98.2396 25.3787H96.7888V25.3786ZM103.246 25.1312L102.849 27.4114H102.399L103.171 23.0479H103.612L103.246 25.1313L105.589 23.0479H106.209L103.839 25.1594L105.589 27.4114H105.016L103.246 25.1312ZM109.075 25.179C109.187 25.2381 109.29 25.3084 109.382 25.3955C109.458 25.4714 109.527 25.5642 109.592 25.6795C109.656 25.7948 109.687 25.9325 109.687 26.0928C109.687 26.284 109.648 26.4583 109.57 26.6157C109.491 26.776 109.385 26.9137 109.254 27.0319C109.122 27.1527 108.971 27.2456 108.801 27.3102C108.63 27.3776 108.454 27.4114 108.267 27.4114H106.243L107.015 23.0479H108.753C108.929 23.0479 109.089 23.0789 109.226 23.1379C109.363 23.197 109.483 23.2757 109.581 23.3741C109.679 23.4726 109.754 23.5878 109.807 23.7172C109.86 23.8465 109.885 23.9815 109.885 24.1192C109.885 24.33 109.844 24.5043 109.757 24.6393C109.67 24.7771 109.578 24.884 109.48 24.9599C109.36 25.0526 109.226 25.1258 109.075 25.1792L109.075 25.179ZM107.381 23.4921L107.126 24.9315H108.532C108.658 24.9315 108.776 24.909 108.887 24.8668C108.999 24.8247 109.097 24.7656 109.178 24.6953C109.259 24.6251 109.323 24.5464 109.371 24.4535C109.418 24.3608 109.441 24.2652 109.441 24.1668C109.441 24.0065 109.376 23.8546 109.245 23.7085C109.114 23.5651 108.921 23.492 108.669 23.492H107.381L107.381 23.4921ZM107.042 25.3786L106.768 26.9672H108.286C108.412 26.9672 108.532 26.9447 108.647 26.8969C108.762 26.8491 108.865 26.7872 108.955 26.7113C109.041 26.6354 109.111 26.5482 109.164 26.4498C109.217 26.3515 109.242 26.2503 109.242 26.1434C109.242 26.0562 109.226 25.9663 109.189 25.8734C109.153 25.7807 109.1 25.6992 109.03 25.626C108.96 25.553 108.882 25.4939 108.79 25.4461C108.697 25.4011 108.599 25.3787 108.493 25.3787H107.042V25.3786ZM110.995 26.2193C110.995 26.4723 111.087 26.6691 111.272 26.8069C111.451 26.9447 111.708 27.0149 112.041 27.0149C112.222 27.0149 112.404 26.9784 112.586 26.9024C112.762 26.8265 112.921 26.7281 113.058 26.6072C113.195 26.4864 113.313 26.3514 113.41 26.1995C113.505 26.0478 113.567 25.8959 113.592 25.7441L113.679 25.2268H113.047C112.653 25.2268 112.326 25.2549 112.066 25.314C111.803 25.3674 111.591 25.4433 111.429 25.536C111.272 25.6288 111.163 25.7357 111.099 25.8509C111.029 25.9718 110.995 26.0928 110.995 26.2193H110.995ZM112.753 23.0001C113.064 23.0001 113.321 23.0507 113.525 23.1547C113.726 23.2615 113.883 23.3965 113.998 23.5567C114.109 23.717 114.182 23.8941 114.213 24.0881C114.244 24.2793 114.249 24.462 114.224 24.6363L113.74 27.4113H113.444L113.425 26.7674H113.374C113.262 26.8996 113.131 27.0176 112.98 27.1161C112.849 27.2089 112.695 27.2904 112.519 27.358C112.343 27.4282 112.147 27.4619 111.935 27.4592C111.711 27.4592 111.515 27.4282 111.345 27.3664C111.174 27.3073 111.029 27.2231 110.912 27.1162C110.791 27.0094 110.702 26.8857 110.64 26.7423C110.579 26.599 110.548 26.4527 110.545 26.3037C110.545 25.9859 110.626 25.7272 110.789 25.5277C110.954 25.3309 111.18 25.1762 111.468 25.0638C111.756 24.9485 112.094 24.8726 112.485 24.8332C112.877 24.7966 113.302 24.7742 113.76 24.7714L113.791 24.6364C113.816 24.479 113.81 24.3271 113.78 24.1809C113.749 24.0376 113.685 23.9138 113.592 23.807C113.5 23.6973 113.38 23.6102 113.232 23.5427C113.084 23.478 112.908 23.4443 112.706 23.4443C112.41 23.4443 112.167 23.5202 111.974 23.672C111.786 23.8238 111.638 24.0122 111.532 24.2399H111.068C111.121 24.0796 111.199 23.925 111.306 23.7704C111.412 23.6185 111.538 23.4864 111.683 23.3712C111.826 23.2587 111.988 23.1687 112.169 23.1012C112.348 23.0338 112.544 23 112.754 23L112.753 23.0001ZM119.122 26.9672L118.848 28.5557H118.403L118.602 27.4114H114.951L114.752 28.5557H114.311L114.585 26.9672H114.831C114.942 26.9137 115.051 26.8406 115.158 26.7478C115.25 26.6662 115.342 26.5594 115.434 26.4217C115.527 26.2867 115.599 26.1209 115.658 25.9241L116.457 23.0478H119.169L118.481 26.9672H119.122H119.122ZM116.102 25.9241C116.049 26.1208 115.982 26.2867 115.901 26.4217C115.82 26.5595 115.739 26.6663 115.658 26.7478C115.566 26.8405 115.471 26.9137 115.376 26.9672H118.037L118.649 23.4921H116.776L116.102 25.9241ZM124.237 24.9513C124.237 25.3618 124.167 25.7245 124.028 26.0366C123.885 26.3486 123.706 26.6129 123.488 26.8238C123.267 27.0375 123.03 27.1949 122.77 27.299C122.507 27.4059 122.252 27.4593 122.009 27.4593C121.733 27.4593 121.498 27.4115 121.305 27.3186C121.118 27.2231 120.961 27.1162 120.841 27.0009C120.718 26.8856 120.631 26.776 120.578 26.6748L120.503 26.5287H120.449L120.016 29H119.572L120.617 23.048H120.916L120.936 23.6919H120.983C121.103 23.5653 121.238 23.4501 121.389 23.3432C121.52 23.256 121.671 23.1773 121.844 23.107C122.017 23.0311 122.216 22.9973 122.442 23.0002C122.711 23.0002 122.957 23.0479 123.178 23.1435C123.398 23.2447 123.588 23.3825 123.742 23.5568C123.899 23.731 124.022 23.9363 124.109 24.1753C124.195 24.4143 124.237 24.6729 124.237 24.9513H124.237ZM122.029 27.0149C122.247 27.0149 122.459 26.9643 122.669 26.8631C122.879 26.7648 123.069 26.6241 123.237 26.447C123.404 26.2699 123.541 26.0562 123.647 25.8117C123.751 25.567 123.804 25.2972 123.804 24.9991C123.804 24.7742 123.768 24.5661 123.695 24.3749C123.62 24.1837 123.522 24.0179 123.396 23.8801C123.267 23.7422 123.114 23.6327 122.937 23.5567C122.764 23.4808 122.577 23.4414 122.376 23.4442C122.157 23.4442 121.945 23.4949 121.735 23.596C121.523 23.6944 121.333 23.835 121.168 24.0121C121 24.1893 120.866 24.4001 120.763 24.6448C120.659 24.8894 120.606 25.1621 120.606 25.4601C120.606 25.6935 120.642 25.9016 120.718 26.09C120.793 26.2784 120.891 26.4414 121.017 26.5791C121.146 26.717 121.294 26.8265 121.464 26.9025C121.638 26.9785 121.825 27.015 122.029 27.015L122.029 27.0149ZM125.336 26.2193C125.336 26.4723 125.428 26.6691 125.613 26.8069C125.791 26.9447 126.049 27.0149 126.381 27.0149C126.563 27.0149 126.745 26.9784 126.926 26.9024C127.103 26.8265 127.262 26.7281 127.399 26.6072C127.536 26.4864 127.653 26.3514 127.751 26.1995C127.846 26.0478 127.908 25.8959 127.933 25.7441L128.019 25.2268H127.388C126.994 25.2268 126.667 25.2549 126.407 25.314C126.144 25.3674 125.931 25.4433 125.769 25.536C125.613 25.6288 125.504 25.7357 125.439 25.8509C125.369 25.9718 125.336 26.0928 125.336 26.2193H125.336ZM127.094 23.0001C127.404 23.0001 127.662 23.0507 127.866 23.1547C128.067 23.2615 128.224 23.3965 128.338 23.5567C128.45 23.717 128.523 23.8941 128.553 24.0881C128.584 24.2793 128.59 24.462 128.565 24.6363L128.081 27.4113H127.785L127.765 26.7674H127.715C127.603 26.8996 127.472 27.0176 127.321 27.1161C127.189 27.2089 127.036 27.2904 126.859 27.358C126.683 27.4282 126.488 27.4619 126.275 27.4592C126.052 27.4592 125.856 27.4282 125.686 27.3664C125.515 27.3073 125.37 27.2231 125.252 27.1162C125.132 27.0094 125.042 26.8857 124.981 26.7423C124.92 26.599 124.889 26.4527 124.886 26.3037C124.886 25.9859 124.967 25.7272 125.129 25.5277C125.294 25.3309 125.521 25.1762 125.809 25.0638C126.097 24.9485 126.435 24.8726 126.826 24.8332C127.217 24.7966 127.642 24.7742 128.101 24.7714L128.132 24.6364C128.157 24.479 128.151 24.3271 128.12 24.1809C128.09 24.0376 128.025 23.9138 127.933 23.807C127.841 23.6973 127.721 23.6102 127.572 23.5427C127.424 23.478 127.248 23.4443 127.047 23.4443C126.751 23.4443 126.507 23.5202 126.314 23.672C126.127 23.8238 125.979 24.0122 125.873 24.2399H125.409C125.462 24.0796 125.54 23.925 125.646 23.7704C125.753 23.6185 125.878 23.4864 126.024 23.3712C126.166 23.2587 126.328 23.1687 126.51 23.1012C126.689 23.0338 126.885 23 127.094 23L127.094 23.0001ZM129.532 23.0478H132.937L132.861 23.4921H131.377L130.689 27.4114H130.245L130.935 23.4921H129.456L129.532 23.0478ZM136.726 26.3205C136.634 26.4583 136.525 26.596 136.399 26.731C136.273 26.8687 136.133 26.9897 135.977 27.0965C135.817 27.2061 135.647 27.296 135.459 27.3636C135.272 27.4283 135.071 27.4592 134.853 27.4592C134.576 27.4592 134.325 27.4114 134.093 27.3159C133.861 27.2147 133.665 27.0797 133.5 26.9082C133.335 26.7367 133.206 26.5315 133.114 26.2925C133.022 26.0534 132.977 25.7948 132.98 25.5165C132.98 25.1538 133.044 24.8165 133.17 24.51C133.296 24.2035 133.461 23.9392 133.665 23.7115C133.874 23.4839 134.115 23.3095 134.386 23.1886C134.66 23.062 134.942 23.0002 135.23 23.0002C135.485 23.0002 135.722 23.0479 135.938 23.1408C136.156 23.2364 136.343 23.3657 136.502 23.5316C136.659 23.6975 136.782 23.8914 136.871 24.1163C136.961 24.3441 137.003 24.583 137 24.8361C137 24.9233 136.994 25.002 136.983 25.0723C136.969 25.1482 136.958 25.21 136.944 25.2607C136.925 25.3253 136.905 25.3815 136.885 25.4266H133.413C133.413 25.6599 133.447 25.8708 133.514 26.0592C133.584 26.2505 133.685 26.4191 133.813 26.5653C133.942 26.7059 134.095 26.8154 134.277 26.897C134.456 26.9786 134.66 27.0178 134.892 27.015C135.012 27.015 135.133 26.9954 135.258 26.956C135.384 26.9166 135.502 26.8632 135.613 26.7957C135.728 26.731 135.829 26.6579 135.918 26.5736C136.01 26.4892 136.089 26.405 136.153 26.3206H136.726L136.726 26.3205ZM135.306 23.4443C134.847 23.4443 134.456 23.5821 134.132 23.8576C133.81 24.1303 133.586 24.5042 133.461 24.9794H136.558V24.7827C136.558 24.5971 136.519 24.4228 136.443 24.2625C136.362 24.1022 136.262 23.9589 136.142 23.8352C136.019 23.7143 135.882 23.6159 135.733 23.5456C135.585 23.4782 135.443 23.4444 135.306 23.4444L135.306 23.4443Z" fill="#8E8E8E"/>
</g>
<defs>
<clipPath id="clip0_2422_992">
<rect width="137" height="32" fill="white"/>
</clipPath>
</defs>
</svg>
