<svg width="20" height="16" viewBox="0 0 20 16" fill="none" xmlns="http://www.w3.org/2000/svg">
<path d="M19.2 9.30233H7.6C6.8 9.30233 6.8 9.30233 6.8 10.0465C6.8 11.1628 7.2 11.5349 8.4 11.5349H19.2C20 11.5349 20 11.5349 20 10.7907V10.0465C20 9.30233 20 9.30233 19.2 9.30233ZM19.2 4.83721H8.4L9.6 7.06977H19.2C20 7.06977 20 7.06977 20 6.32558V5.5814C20 4.83721 20 4.83721 19.2 4.83721ZM19.2 0.372093H6L7.2 2.60465H19.2C20 2.60465 20 2.60465 20 1.86047V1.11628C20 0.372093 20 0.372093 19.2 0.372093ZM19.2 13.7674H8.4C6.4 13.7674 4.8 12.2791 4.8 10.4186V7.06977H7.2L3.6 0L0 7.06977H2.4V10.4186C2.4 13.7674 4.8 16 8.4 16H19.2C20 16 20 16 20 15.2558V14.5116C20 13.7674 20 13.7674 19.2 13.7674Z" fill="#181818"/>
</svg>
