<svg width="20" height="20" viewBox="0 0 20 20" fill="none" xmlns="http://www.w3.org/2000/svg">
<path fill-rule="evenodd" clip-rule="evenodd" d="M12 20H8C4.229 20 2.343 20 1.172 18.828C-1.19209e-07 17.657 0 15.771 0 12V8C0 4.229 -1.19209e-07 2.343 1.172 1.172C2.343 -1.19209e-07 4.239 0 8.03 0C8.636 0 9.121 -4.09782e-08 9.53 0.017C9.517 0.097 9.51 0.178 9.51 0.261L9.5 3.095C9.5 4.192 9.5 5.162 9.605 5.943C9.719 6.79 9.98 7.637 10.672 8.329C11.362 9.019 12.21 9.281 13.057 9.395C13.838 9.5 14.808 9.5 15.905 9.5H19.957C20 10.034 20 10.69 20 11.563V12C20 15.771 20 17.657 18.828 18.828C17.657 20 15.771 20 12 20Z" fill="#7F7F7F"/>
<path d="M17.6629 5.53504L13.5091 1.8495C12.3269 0.799586 11.7364 0.274114 11.0094 0L11 2.82803C11 5.2661 11 6.48565 11.7678 7.24282C12.5357 8 13.7724 8 16.2448 8H20C19.6203 7.27179 18.9385 6.6677 17.6629 5.53504Z" fill="#7F7F7F"/>
</svg>
