<svg width="64" height="64" viewBox="0 0 64 64" fill="none" xmlns="http://www.w3.org/2000/svg">
<g id="teenyicons:tick-circle-solid" clip-path="url(#clip0_2380_3856)">
<path id="Vector" fill-rule="evenodd" clip-rule="evenodd" d="M0 32C0 23.5131 3.37142 15.3737 9.37258 9.37258C15.3737 3.37142 23.5131 0 32 0C40.4869 0 48.6263 3.37142 54.6274 9.37258C60.6286 15.3737 64 23.5131 64 32C64 40.4869 60.6286 48.6263 54.6274 54.6274C48.6263 60.6286 40.4869 64 32 64C23.5131 64 15.3737 60.6286 9.37258 54.6274C3.37142 48.6263 0 40.4869 0 32ZM30.1739 45.696L48.5973 22.6645L45.2693 20.0021L29.5595 39.6331L18.432 30.3616L15.7013 33.6384L30.1739 45.7003V45.696Z" fill="#204FF5"/>
</g>
<defs>
<clipPath id="clip0_2380_3856">
<rect width="64" height="64" fill="white"/>
</clipPath>
</defs>
</svg>
