<svg width="26" height="24" viewBox="0 0 26 24" fill="none" xmlns="http://www.w3.org/2000/svg">
<path d="M4.5293 2.4707C2.20188 2.4707 0.292969 4.38011 0.292969 6.70831V19.4171C0.292969 21.7453 2.20188 23.6465 4.5293 23.6465H21.4705C23.798 23.6465 25.7047 21.7453 25.7047 19.4171V6.70831C25.7047 4.38011 23.798 2.4707 21.4705 2.4707H4.5293ZM10.2777 7.10189C11.0295 7.10241 11.6384 7.71241 11.6378 8.46437C11.6373 9.21557 11.0287 9.82437 10.2777 9.82489C9.52602 9.82541 8.91617 9.21633 8.91569 8.46437C8.91513 7.71169 9.5253 7.10133 10.2777 7.10189ZM15.722 7.10189C16.4738 7.10241 17.0827 7.71241 17.0821 8.46437C17.0817 9.21557 16.473 9.82437 15.722 9.82489C14.9703 9.82545 14.3605 9.21633 14.36 8.46437C14.3594 7.71165 14.9696 7.10133 15.722 7.10189ZM21.1644 7.10189C21.9169 7.10133 22.5271 7.71165 22.5265 8.46437C22.526 9.21633 21.9162 9.82545 21.1644 9.82489C20.4135 9.82437 19.8048 9.21557 19.8043 8.46437C19.8037 7.71241 20.4127 7.10241 21.1644 7.10189ZM4.83338 11.6971C5.58587 11.6965 6.19605 12.3068 6.1955 13.0595C6.19497 13.8115 5.58511 14.4207 4.83338 14.4201C4.08246 14.4196 3.47383 13.8107 3.47335 13.0595C3.47279 12.3076 4.0817 11.6976 4.83338 11.6971ZM10.2777 11.6971C11.0295 11.6976 11.6384 12.3076 11.6378 13.0595C11.6373 13.8107 11.0287 14.4196 10.2777 14.4201C9.52602 14.4207 8.91617 13.8115 8.91569 13.0595C8.91513 12.3068 9.5253 11.6965 10.2777 11.6971ZM15.722 11.6971C16.4738 11.6976 17.0827 12.3076 17.0821 13.0595C17.0817 13.8107 16.473 14.4196 15.722 14.4201C14.9703 14.4207 14.3605 13.8115 14.36 13.0595C14.3594 12.3068 14.9696 11.6965 15.722 11.6971ZM21.1644 11.6971C21.9169 11.6965 22.5271 12.3068 22.5265 13.0595C22.526 13.8115 21.9162 14.4207 21.1644 14.4201C20.4135 14.4196 19.8048 13.8107 19.8043 13.0595C19.8037 12.3076 20.4127 11.6976 21.1644 11.6971ZM4.83338 16.2923C5.58511 16.2918 6.19497 16.9009 6.1955 17.6528C6.19605 18.4056 5.58587 19.0159 4.83338 19.0153C4.0817 19.0148 3.47279 18.4048 3.47335 17.6528C3.47383 16.9017 4.08246 16.2928 4.83338 16.2923ZM10.2777 16.2923C11.0287 16.2928 11.6373 16.9016 11.6378 17.6528C11.6384 18.4048 11.0295 19.0148 10.2777 19.0153C9.5253 19.0159 8.91513 18.4056 8.91569 17.6528C8.91617 16.9009 9.52606 16.2918 10.2777 16.2923ZM15.722 16.2923C16.473 16.2928 17.0817 16.9016 17.0821 17.6528C17.0827 18.4048 16.4738 19.0148 15.722 19.0153C14.9696 19.0159 14.3594 18.4056 14.36 17.6528C14.3605 16.9009 14.9703 16.2918 15.722 16.2923Z" fill="#0B62E4"/>
<path d="M6.64867 0.353524C6.06079 0.351205 5.58363 0.82812 5.58595 1.4157V3.52999H7.70358V1.4157C7.70586 0.831199 7.23347 0.355523 6.64867 0.353524Z" fill="#0B62E4"/>
<path d="M13.0041 0.353524C12.4163 0.351205 11.9391 0.82812 11.9414 1.4157V3.52999H14.059V1.4157C14.0613 0.831199 13.5889 0.355523 13.0041 0.353524Z" fill="#0B62E4"/>
<path d="M19.3557 0.353524C18.7678 0.351205 18.2907 0.82812 18.293 1.4157V3.52999H20.4106V1.4157C20.4129 0.831199 19.9405 0.355523 19.3557 0.353524Z" fill="#0B62E4"/>
</svg>
