<svg width="60" height="62" viewBox="0 0 60 62" fill="none" xmlns="http://www.w3.org/2000/svg">
<path d="M48.664 13.2903H32.208C31.3173 13.2903 30.48 12.9465 29.8507 12.3222L27.6427 10.132C26.256 8.75652 24.416 8 22.456 8H11.3333C7.288 8 4 11.2615 4 15.2742V41.7258C4 45.7385 7.288 49 11.3333 49H48.6667C52.712 49 56 45.7385 56 41.7258V20.5645C56 16.5518 52.7093 13.2903 48.664 13.2903Z" fill="#3D87F6"/>
<path d="M50.0997 19.8065H32.3778C31.6872 19.8065 31.041 19.5369 30.5501 19.0406L28.1723 16.6368C26.4924 14.9385 24.2555 14 21.8757 14H9.89744C4.9784 14 1 18.0377 1 22.9839V52.0161C1 56.9623 4.9784 61 9.89744 61H50.1026C55.0216 61 59 56.9623 59 52.0161V28.7903C59 23.8437 55.0183 19.8065 50.0997 19.8065Z" fill="#3D87F6" stroke="#EEEFEF" stroke-width="2"/>
</svg>
