<svg width="60" height="60" viewBox="0 0 60 60" fill="none" xmlns="http://www.w3.org/2000/svg">
<path d="M30 2.23408C30 1.00023 31.0016 -0.00865798 32.2321 0.083132C37.5173 0.477412 42.6184 2.2665 47.0064 5.28598C52.0095 8.72874 55.8498 13.6089 58.0198 19.2812C60.1897 24.9534 60.5869 31.1507 59.159 37.0536C57.731 42.9566 54.5452 48.2871 50.0226 52.3404C45.5 56.3938 39.8538 58.9791 33.8303 59.7545C27.8068 60.5299 21.6899 59.4589 16.2882 56.6831C10.8865 53.9073 6.45447 49.5574 3.57811 44.2086C1.05538 39.5174 -0.166502 34.2515 0.0181941 28.9548C0.061192 27.7217 1.17334 26.8361 2.39982 26.9707C3.6263 27.1053 4.50113 28.2096 4.47421 29.4431C4.37829 33.8385 5.41917 38.1981 7.51335 42.0924C9.96131 46.6445 13.7332 50.3465 18.3304 52.7089C22.9276 55.0713 28.1335 55.9828 33.2598 55.3229C38.3862 54.663 43.1915 52.4627 47.0405 49.0131C50.8895 45.5634 53.6008 41.0268 54.8161 36.0031C56.0313 30.9794 55.6933 25.7051 53.8465 20.8776C51.9998 16.0501 48.7314 11.8969 44.4735 8.96686C40.8309 6.46031 36.611 4.95002 32.2313 4.56583C31.0022 4.458 30 3.46793 30 2.23408Z" fill="#3D87F6"/>
<path d="M30 8.4975C30 7.11817 31.1212 5.98655 32.493 6.12983C35.3519 6.42841 38.1408 7.23891 40.7244 8.52936C44.0546 10.1928 46.9523 12.6081 49.1882 15.5843C51.4242 18.5605 52.9372 22.0161 53.6076 25.6778C54.278 29.3395 54.0874 33.107 53.051 36.6823C52.0145 40.2577 50.1605 43.5429 47.6356 46.2784C45.1107 49.0138 41.9842 51.1243 38.5031 52.4432C35.022 53.7621 31.2818 54.2531 27.5782 53.8775C24.705 53.5861 21.915 52.7793 19.3398 51.5025C18.104 50.8899 17.7619 49.3341 18.4996 48.1686C19.2373 47.0031 20.7751 46.6732 22.0272 47.2518C23.9346 48.1333 25.9803 48.6948 28.0822 48.908C31.015 49.2055 33.9768 48.8166 36.7334 47.7722C39.49 46.7278 41.9658 45.0565 43.9652 42.8904C45.9646 40.7243 47.4327 38.1228 48.2535 35.2916C49.0742 32.4603 49.2251 29.477 48.6943 26.5774C48.1634 23.6777 46.9653 20.9414 45.1947 18.5846C43.4241 16.2278 41.1295 14.3152 38.4923 12.9979C36.6023 12.0539 34.5734 11.4342 32.4903 11.1589C31.1229 10.9781 30 9.87683 30 8.4975Z" fill="#3D87F6"/>
<path d="M29.5 14.2505C29.5 13.0076 30.5117 11.9851 31.7444 12.1445C34.9824 12.5632 38.055 13.8821 40.6019 15.9723C43.7316 18.5408 45.8739 22.115 46.6637 26.0859C47.4536 30.0568 46.8422 34.1788 44.9336 37.7494C43.0251 41.3201 39.9375 44.1185 36.197 45.6679C32.4564 47.2173 28.2944 47.4217 24.42 46.2465C20.5456 45.0712 17.1986 42.5889 14.9493 39.2225C12.6999 35.8561 11.6874 31.8139 12.0843 27.7847C12.4072 24.5057 13.6473 21.4005 15.6408 18.8148C16.3997 17.8305 17.8381 17.8381 18.717 18.717C19.5959 19.5959 19.5766 21.012 18.8623 22.0292C17.5822 23.8519 16.7844 25.9843 16.5636 28.2259C16.2688 31.2188 17.0209 34.2213 18.6917 36.7218C20.3626 39.2224 22.8487 41.0662 25.7266 41.9392C28.6045 42.8122 31.696 42.6604 34.4745 41.5095C37.253 40.3586 39.5464 38.28 40.9641 35.6277C42.3817 32.9754 42.8359 29.9136 42.2492 26.964C41.6625 24.0144 40.0712 21.3595 37.7465 19.4517C36.0053 18.0227 33.9334 17.0791 31.7393 16.6953C30.515 16.4812 29.5 15.4934 29.5 14.2505Z" fill="#3D87F6"/>
<path d="M29.5 20.321C29.5 19.0392 30.5495 17.9765 31.8054 18.2334C33.257 18.5305 34.6449 19.1068 35.8891 19.9381C37.7802 21.2017 39.2542 22.9978 40.1246 25.0991C40.995 27.2005 41.2228 29.5128 40.779 31.7435C40.3353 33.9743 39.24 36.0234 37.6317 37.6317C36.0234 39.24 33.9743 40.3353 31.7435 40.779C29.5128 41.2228 27.2005 40.995 25.0991 40.1246C22.9978 39.2542 21.2017 37.7802 19.9381 35.8891C19.1068 34.6449 18.5305 33.257 18.2334 31.8054C17.9765 30.5495 19.0392 29.5 20.321 29.5C21.6029 29.5 22.6055 30.5679 23.0312 31.777C23.2206 32.3153 23.4775 32.8306 23.7979 33.31C24.5514 34.4378 25.6225 35.3168 26.8756 35.8359C28.1287 36.3549 29.5076 36.4907 30.8379 36.2261C32.1682 35.9615 33.3902 35.3084 34.3493 34.3493C35.3084 33.3902 35.9615 32.1682 36.2261 30.8379C36.4907 29.5076 36.3549 28.1287 35.8359 26.8756C35.3168 25.6225 34.4378 24.5514 33.31 23.7979C32.8306 23.4775 32.3153 23.2206 31.777 23.0312C30.5679 22.6055 29.5 21.6029 29.5 20.321Z" fill="#3D87F6"/>
</svg>
