<svg width="24" height="24" viewBox="0 0 24 24" fill="none" xmlns="http://www.w3.org/2000/svg">
<path d="M24 17V18.7266C24 21.2294 19.0667 24 12 24C4.93333 24 0 21.2294 0 18.7266V17C2.76 19.0344 7.22667 20.239 12 20.239C16.7733 20.239 21.2533 19.0344 24 17Z" fill="#0B62E4"/>
<path d="M24 10V11.7365C23.9308 12.2655 23.7437 12.7717 23.4527 13.2171C23.1617 13.6624 22.7744 14.0353 22.32 14.3077C20.0667 16.0173 16.2133 17 12 17C7.78667 17 4 15.9769 1.66667 14.3077C1.21601 14.0323 0.832315 13.6584 0.543862 13.2134C0.255408 12.7684 0.0695537 12.2637 0 11.7365V10.0269C3.58148 12.3109 7.76765 13.438 12 13.2577C16.2326 13.4071 20.4124 12.2724 24 10Z" fill="#0B62E4"/>
<path d="M24 5.5C23.9413 6.28609 23.5921 7.01723 23.0267 7.53807C21.0267 9.63198 16.6933 11 12 11C4.93333 11 0 8.09645 0 5.5C0 2.90355 4.93333 0 12 0C19.0667 0 24 2.88959 24 5.5Z" fill="#0B62E4"/>
</svg>
