<svg width="14" height="18" viewBox="0 0 14 18" fill="none" xmlns="http://www.w3.org/2000/svg">
<path d="M2.328 18V0.863999H6.84C8.936 0.863999 10.488 1.288 11.496 2.136C12.52 2.984 13.032 4.216 13.032 5.832C13.032 6.92 12.784 7.856 12.288 8.64C11.792 9.408 11.056 10 10.08 10.416C9.12 10.832 7.928 11.04 6.504 11.04H4.488V18H2.328ZM0.24 14.736V13.176H8.448V14.736H0.24ZM0.24 11.04V9.216H5.736V11.04H0.24ZM6.192 9.216C7.168 9.216 7.992 9.112 8.664 8.904C9.352 8.696 9.88 8.352 10.248 7.872C10.616 7.392 10.8 6.736 10.8 5.904C10.8 4.816 10.464 4.008 9.792 3.48C9.12 2.952 8.072 2.688 6.648 2.688H4.488V9.216H6.192Z" fill="#181818"/>
</svg>
