<svg width="136" height="173" viewBox="0 0 136 173" fill="none" xmlns="http://www.w3.org/2000/svg">
<path d="M124 110.727C124 111.86 123.55 112.947 122.75 113.749C121.949 114.55 120.863 115 119.731 115H17.2692C16.137 115 15.0511 114.55 14.2504 113.749C13.4498 112.947 13 111.86 13 110.727C13 109.594 13.4498 108.507 14.2504 107.706C15.0511 106.905 16.137 106.455 17.2692 106.455H119.731C120.863 106.455 121.949 106.905 122.75 107.706C123.55 108.507 124 109.594 124 110.727ZM124 29.5455V89.3636C124 91.63 123.1 93.8036 121.499 95.4062C119.898 97.0088 117.726 97.9091 115.462 97.9091H21.5385C19.2739 97.9091 17.1021 97.0088 15.5009 95.4062C13.8996 93.8036 13 91.63 13 89.3636V29.5455C13 27.2791 13.8996 25.1055 15.5009 23.5029C17.1021 21.9003 19.2739 21 21.5385 21H115.462C117.726 21 119.898 21.9003 121.499 23.5029C123.1 25.1055 124 27.2791 124 29.5455ZM87.7115 59.4545C87.7113 58.7354 87.5297 58.028 87.1837 57.3978C86.8376 56.7676 86.3382 56.2351 85.7317 55.8494L62.2509 40.8949C61.6055 40.4845 60.8618 40.2551 60.0976 40.2308C59.3333 40.2064 58.5765 40.3879 57.9063 40.7563C57.2361 41.1247 56.6771 41.6665 56.2876 42.325C55.8981 42.9836 55.6925 43.7347 55.6923 44.5V74.4091C55.6925 75.1744 55.8981 75.9255 56.2876 76.5841C56.6771 77.2426 57.2361 77.7844 57.9063 78.1528C58.5765 78.5212 59.3333 78.7027 60.0976 78.6783C60.8618 78.6539 61.6055 78.4246 62.2509 78.0142L85.7317 63.0597C86.3382 62.674 86.8376 62.1415 87.1837 61.5113C87.5297 60.8811 87.7113 60.1737 87.7115 59.4545Z" fill="#CCCCCC"/>
<path d="M40.54 140.6L47.612 161.944L54.684 140.6H59.836V163H57.116V141.848L50.14 163H45.052L38.14 141.976V163H35.42V140.6H40.54ZM63.67 163V140.6H73.398C75.5313 140.6 77.2487 141.304 78.55 142.712C79.8727 144.099 80.534 145.805 80.534 147.832C80.534 149.901 79.8727 151.629 78.55 153.016C77.2487 154.403 75.5313 155.096 73.398 155.096H66.486V163H63.67ZM66.486 152.536H73.238C74.6673 152.536 75.7873 152.088 76.598 151.192C77.4087 150.275 77.814 149.133 77.814 147.768C77.814 146.424 77.4087 145.325 76.598 144.472C75.8087 143.597 74.6887 143.16 73.238 143.16H66.486V152.536ZM82.9348 156.312L92.4068 140.6H97.0148V155.992H100.407V158.392H97.0148V163H94.2948V158.392L82.9348 158.424V156.312ZM85.8788 156.024L94.2948 155.992V142.328L85.8788 156.024Z" fill="#B2B2B2"/>
</svg>
