<svg width="306" height="261" viewBox="0 0 306 261" fill="none" xmlns="http://www.w3.org/2000/svg">
<path d="M288 37H29.5L18 36.5C8.55064 35.641 1.19248 27.927 0.78033 18.4476L0 0.5V260.5L1.5948 252.685C3.54901 243.11 12.2439 236.426 22 237H213.5L223.698 236.126C228.115 235.747 231.864 232.736 233.186 228.505C233.395 227.836 233.539 227.15 233.616 226.454L234.5 218.5V138L234.48 137.491C234.218 130.671 239.676 125 246.5 125L248.997 125.086C255.64 125.315 261.223 120.141 261.5 113.5V101.5L261.629 100.012C262.134 94.2054 266.7 89.58 272.5 89H287.5H291.905C298.251 89 303.904 84.9895 306 79V50.5C306 43.7172 300.801 38.0667 294.041 37.5035L288 37Z" fill="#D9D9D9"/>
</svg>
