<svg width="775" height="425" viewBox="0 0 775 425" fill="none" xmlns="http://www.w3.org/2000/svg">
<path d="M0.5 355L0 0L0.5 21.5L1.0928 29.1323C3.01578 53.8908 23.667 73.0002 48.5 73.0002H531.26C532.751 73.0002 534.241 73.1163 535.714 73.3475C549.254 75.4712 559.411 86.8571 559.982 100.55L560.001 101V132C559.735 140.227 566.745 146.821 574.94 146.052L575.5 146L685.501 146C707.414 145.719 725.762 162.54 727.382 184.396L727.501 186V375.938C727.501 381.929 728.598 387.868 730.74 393.463L731.561 395.61C738.258 413.109 754.922 424.709 773.561 425H775C774.519 425.008 774.039 425.008 773.561 425H77.5004L49.0004 424L38.0919 422.565C32.7495 421.862 27.5967 420.118 22.9254 417.432L22.4808 417.176C14.4165 412.539 8.23153 405.224 5.00066 396.5C2.67427 387.527 1.33364 378.327 1.00257 369.063L0.5 355Z" fill="#D9D9D9"/>
</svg>
