<svg width="140" height="32" viewBox="0 0 140 32" fill="none" xmlns="http://www.w3.org/2000/svg">
<path d="M23 31V28.9648H30.9647V21H33V30.9996L23 31Z" fill="#8E8E8E"/>
<path d="M0 30.9996V21H2.03535V28.9648H10V31L0 30.9996Z" fill="#8E8E8E"/>
<path d="M30.9655 10V2.03527H23V0H33V10H30.9655Z" fill="#8E8E8E"/>
<path d="M0 10V0H10V2.03527H2.03535V10H0Z" fill="#8E8E8E"/>
<path d="M27 6H6V10H27V6Z" fill="#8E8E8E"/>
<path d="M27 21H6V25H27V21Z" fill="#8E8E8E"/>
<path d="M23 14H6V18H23V14Z" fill="#8E8E8E"/>
<path d="M55 22V10.0092H64.3138C65.0158 9.95211 65.7141 10.1625 66.2849 10.603C66.5076 10.8493 66.6788 11.1433 66.787 11.4658C66.895 11.7883 66.9376 12.1317 66.912 12.4732V13.8814C66.9205 14.154 66.8774 14.4258 66.7856 14.6803C66.6936 14.9348 66.5548 15.1669 66.3771 15.3628C66.2377 15.513 66.078 15.64 65.9033 15.7397L65.7318 15.8382L65.9025 15.9389C66.1044 16.0572 66.2869 16.2098 66.443 16.3908C66.8236 16.8414 67.0228 17.4342 66.9977 18.0406V19.5142C67.0143 19.8828 66.9426 20.2498 66.7893 20.5805C66.636 20.9112 66.4064 21.1944 66.122 21.4037C65.5747 21.8052 64.7673 22 63.656 22H55ZM57.8468 19.468H63.2784C63.8315 19.468 64.0252 19.3629 64.0914 19.2998C64.1592 19.2126 64.2094 19.1117 64.2396 19.0031C64.2696 18.8945 64.2788 18.7805 64.2664 18.668V17.795C64.279 17.6815 64.2699 17.5666 64.2397 17.457C64.2096 17.3473 64.1591 17.2455 64.091 17.1573C64.0223 17.0942 63.8278 16.9899 63.2784 16.9899H57.8468V19.468ZM57.8468 14.6377H63.2784C63.5369 14.6604 63.7967 14.6158 64.0357 14.5079L64.0441 14.5029L64.0513 14.4959C64.1074 14.4367 64.1504 14.3649 64.1771 14.2858C64.2038 14.2065 64.2136 14.122 64.2058 14.0382V12.9388C64.2133 12.855 64.2035 12.7706 64.1769 12.6914C64.1502 12.6123 64.1074 12.5405 64.0517 12.4811L64.0449 12.4745L64.0368 12.4698C63.7977 12.3612 63.5373 12.3168 63.2784 12.3403H57.8468V14.6377Z" fill="#8E8E8E"/>
<path d="M69 22V10.0098H78.3531C79.0606 9.95193 79.7657 10.1521 80.3517 10.5772C80.5801 10.8262 80.7554 11.1244 80.8659 11.4517C80.9763 11.7789 81.0194 12.1274 80.992 12.4738V15.0447C81.0183 15.3859 80.9754 15.729 80.8662 16.051C80.757 16.373 80.584 16.6665 80.3589 16.9115C79.7788 17.3592 79.0669 17.5712 78.3523 17.5089H71.8651V22H69ZM71.8651 15.0637H77.2579C77.5206 15.0974 77.7866 15.0438 78.0194 14.9103C78.1333 14.7588 78.1865 14.5658 78.1676 14.373V13.145C78.1793 13.0488 78.1719 12.951 78.1458 12.8581C78.1197 12.7651 78.0755 12.679 78.0162 12.6052C77.7842 12.4731 77.5193 12.4204 77.2579 12.4548H71.8651V15.0637Z" fill="#8E8E8E"/>
<path d="M85.9451 22C84.8225 22 84.0621 21.7911 83.6211 21.3606C83.2025 20.9233 83 20.1637 83 19.0421V12.9562C83 11.838 83.2013 11.0832 83.6152 10.6489C84.0554 10.2115 84.8183 10 85.9451 10H94.0497C95.1857 10 95.9411 10.2128 96.3586 10.6489C96.7904 11.0775 97 11.8315 97 12.9562V19.0421C97 20.1698 96.7904 20.9281 96.3544 21.3593C95.9361 21.792 95.1824 22 94.0497 22H85.9451ZM85.9937 19.3781H94.0061V12.5106H85.9937V19.3781Z" fill="#8E8E8E"/>
<path d="M107.97 22V12.627H101.029V22H98V10H111V22H107.97Z" fill="#8E8E8E"/>
<path d="M130.604 10.0094C129.889 9.95279 129.178 10.1538 128.586 10.5797C128.36 10.8256 128.187 11.12 128.078 11.4432C127.969 11.7664 127.927 12.1106 127.955 12.4525V15.1375C127.93 15.4768 127.972 15.8178 128.082 16.1378C128.191 16.4577 128.365 16.7489 128.589 16.9918C129.124 17.4014 129.775 17.6059 130.434 17.571L127 22H130.659L133.74 17.5752H137.121V22H140V10.0101L130.604 10.0094ZM137.123 15.1773H131.707C131.442 15.2065 131.174 15.152 130.938 15.0202C130.827 14.8711 130.775 14.6816 130.794 14.4926V13.1182C130.775 12.9283 130.827 12.7379 130.939 12.5885C131.175 12.4562 131.442 12.4022 131.707 12.4334H137.123V15.1773Z" fill="#8E8E8E"/>
<path d="M53 10H40V13H53V10Z" fill="#8E8E8E"/>
<path d="M53 19H40V22H53V19Z" fill="#8E8E8E"/>
<path d="M50 14H40V17H50V14Z" fill="#8E8E8E"/>
<path d="M126 10H113V13H126V10Z" fill="#8E8E8E"/>
<path d="M126 19H113V22H126V19Z" fill="#8E8E8E"/>
<path d="M123 14H113V17H123V14Z" fill="#8E8E8E"/>
</svg>
