<svg width="140" height="17" viewBox="0 0 140 17" fill="none" xmlns="http://www.w3.org/2000/svg">
<g clip-path="url(#clip0_2422_1239)">
<path d="M0 4H4.95556H5V5.28889H1.53333V9H0V4Z" fill="#8E8E8E"/>
<path d="M8 9V4H13.9753V5.2H9.72838V5.88889H13.8025V7.08889H9.72838V7.77779H14V8.97777H8V9Z" fill="#8E8E8E"/>
<path d="M18 4H19.683V5.7634H23.317V4H25V9H23.317V7.0357H19.683V9H18V4Z" fill="#8E8E8E"/>
<path d="M38.0163 4L39.4514 6.8C39.4757 6.82223 39.4757 6.93336 39.5 7.13334C39.5244 7.31109 39.5487 7.4 39.573 7.4C39.5973 7.4 39.6216 7.35554 39.6216 7.24447C39.646 7.13334 39.6703 6.99998 39.6946 6.8L41.1297 4H44V9H42.3216V5.48889C42.3216 5.42222 42.3459 5.35555 42.3703 5.26667C42.3946 5.17778 42.4189 5.13334 42.4189 5.11111C42.4189 5.06667 42.3946 5.04444 42.3703 5.04444C42.3459 5.04444 42.3216 5.06667 42.2973 5.13333C42.273 5.17778 42.2487 5.24445 42.2244 5.28889L40.2784 9H38.8919L36.8 5.28889C36.7757 5.22223 36.7514 5.17778 36.727 5.13333C36.7027 5.08889 36.6784 5.06667 36.6541 5.06667C36.6298 5.06667 36.6054 5.08889 36.6054 5.11111C36.6054 5.11111 36.6298 5.2 36.6541 5.33333C36.6784 5.4 36.6784 5.44445 36.6784 5.48889V9H35V4H38.0163Z" fill="#8E8E8E"/>
<path d="M55 6.51082C55 7.70129 54.835 8.39394 54.5286 8.63208C54.1987 8.89181 53.1852 9 51.4882 9C50.2626 9 49.4377 8.9567 49.0606 8.87016C48.5656 8.76192 48.2592 8.54548 48.1414 8.19916C48.0472 7.93942 48 7.37666 48 6.51082C48 5.32035 48.1414 4.62771 48.4478 4.38961C48.7778 4.12987 49.7912 4 51.4882 4C53.1616 4 54.1751 4.12987 54.5286 4.36797C54.835 4.62771 55 5.342 55 6.51082ZM49.6263 6.51082C49.6263 7.13852 49.697 7.48485 49.8619 7.5931C50.0269 7.70129 50.569 7.74458 51.4882 7.74458C52.431 7.74458 52.9731 7.70129 53.1381 7.5931C53.303 7.48485 53.3737 7.13852 53.3737 6.51082C53.3737 5.88312 53.303 5.51516 53.1381 5.42858C52.9731 5.32035 52.431 5.27707 51.5118 5.27707C50.569 5.27707 50.0269 5.32035 49.8619 5.42858C49.697 5.5368 49.6263 5.88312 49.6263 6.51082Z" fill="#8E8E8E"/>
<path d="M65 4V9H63.3572V5.28889H60.4285C60.4285 6.73333 60.2857 7.73333 60.024 8.26665C59.7861 8.75557 59.3573 9 58.7857 9H58V7.71111C58.3812 7.71111 58.6192 7.55558 58.6905 7.24447C58.7619 6.93331 58.7857 5.84444 58.7857 4H65Z" fill="#8E8E8E"/>
<path d="M76 6.51082C76 7.70129 75.8351 8.39394 75.529 8.63202C75.1987 8.89176 74.1854 9 72.4885 9C71.2627 9 70.4378 8.9567 70.0604 8.87011C69.5658 8.76192 69.2591 8.54543 69.1413 8.19916C69.0471 7.93937 69 7.37661 69 6.51082C69 5.32035 69.1413 4.62771 69.4481 4.38961C69.7778 4.12987 70.7911 4 72.4885 4C74.1618 4 75.1751 4.12987 75.529 4.36796C75.8351 4.62771 76 5.34199 76 6.51082ZM70.6262 6.51082C70.6262 7.13853 70.6969 7.48486 70.8623 7.5931C71.0272 7.70129 71.5688 7.74459 72.4885 7.74459C73.4312 7.74459 73.9734 7.70129 74.1383 7.5931C74.3031 7.48486 74.3738 7.13853 74.3738 6.51082C74.3738 5.88312 74.3031 5.51515 74.1383 5.42858C73.9734 5.32035 73.4312 5.27706 72.5121 5.27706C71.5688 5.27706 71.0272 5.32035 70.8623 5.42858C70.6969 5.5368 70.6262 5.88312 70.6262 6.51082Z" fill="#8E8E8E"/>
<path d="M79.2734 8.04034C79.4107 8.04034 79.5246 7.75003 79.593 7.19354C79.6613 6.63711 79.7069 5.57259 79.7069 4H85.6127V8.04034H86V10H84.4267V9.78228C84.4267 9.66129 84.4039 9.56456 84.3584 9.51617C84.3128 9.46777 84.2217 9.44357 84.1077 9.44357H80.9156C80.6872 9.44357 80.5733 9.56456 80.5733 9.78228V10H79V8.04034H79.2734ZM84.0394 8.04034V5.42742H81.2802C81.2802 6.15323 81.2574 6.7581 81.189 7.21773C81.1207 7.67743 81.0523 7.96775 80.9612 8.04034H84.0394Z" fill="#8E8E8E"/>
<path d="M103 6.51082C103 7.70129 102.835 8.39394 102.528 8.63202C102.199 8.89181 101.185 9 99.4879 9C98.2627 9 97.4378 8.9567 97.0604 8.87016C96.5658 8.76192 96.2591 8.54548 96.1413 8.19916C96.0471 7.93942 96 7.37661 96 6.51082C96 5.32035 96.1413 4.62771 96.4475 4.38961C96.7778 4.12987 97.7911 4 99.4879 4C101.162 4 102.175 4.12987 102.528 4.36796C102.859 4.62771 103 5.34199 103 6.51082ZM97.6262 6.51082C97.6262 7.13853 97.6969 7.48485 97.8617 7.5931C98.0266 7.70129 98.5689 7.74458 99.4879 7.74458C100.431 7.74458 100.973 7.70129 101.138 7.5931C101.303 7.48485 101.374 7.13853 101.374 6.51082C101.374 5.88312 101.303 5.51515 101.138 5.42857C100.973 5.32035 100.431 5.27706 99.5115 5.27706C98.5689 5.27706 98.0266 5.32035 97.8617 5.42857C97.7204 5.5368 97.6262 5.88312 97.6262 6.51082Z" fill="#8E8E8E"/>
<path d="M110.513 4C112.142 4 113.16 4.10822 113.516 4.34632C113.847 4.54112 114 5.08225 114 5.94805H112.244C112.244 5.66667 112.167 5.49351 111.989 5.40693C111.76 5.32035 111.276 5.25541 110.513 5.25541C109.647 5.25541 109.138 5.32034 109.011 5.42857C108.858 5.5368 108.782 5.90477 108.782 6.51082C108.782 7.11688 108.858 7.4632 109.011 7.57145C109.163 7.67964 109.673 7.74458 110.513 7.74458C111.302 7.74458 111.785 7.70129 111.964 7.61475C112.167 7.52815 112.244 7.35496 112.244 7.05193H114C114 7.91778 113.847 8.45889 113.516 8.65367C113.135 8.89176 112.116 9 110.487 9C108.833 9 107.84 8.87016 107.509 8.61037C107.153 8.35064 107 7.65799 107 6.48917C107 5.34199 107.153 4.62771 107.483 4.38961C107.865 4.12987 108.858 4 110.513 4Z" fill="#8E8E8E"/>
<path d="M116 5.28889V4H122V5.28889H119.775V9H118.225V5.28889H116Z" fill="#8E8E8E"/>
<path d="M126 4H127.594V7.44445C127.548 7.57781 127.525 7.71111 127.479 7.82224C127.479 7.86669 127.479 7.91114 127.479 7.95554C127.502 7.95554 127.548 7.93337 127.571 7.86669C127.594 7.80001 127.64 7.75556 127.663 7.68888L130.39 4H133V8.97777H131.406V5.55556C131.406 5.55556 131.452 5.42223 131.521 5.17778C131.521 5.13334 131.521 5.08889 131.521 5.04444C131.498 5.04444 131.452 5.06667 131.429 5.13334C131.406 5.20001 131.36 5.24445 131.337 5.31111L128.61 9H126V4Z" fill="#8E8E8E"/>
<path d="M26.3146 1.16666V2H26V0H28V0.270834H26.3146V0.895831H27.9326V1.16666H26.3146Z" fill="#8E8E8E"/>
<path d="M89.5 2C88.9919 2 88.6357 1.98 88.4325 1.92C88.2292 1.86 88.1022 1.78 88.0514 1.62C88.0254 1.52 88 1.32 88 1C88 0.680001 88.0254 0.480001 88.0514 0.38C88.1022 0.24 88.2292 0.14 88.4325 0.0800005C88.6357 0.0200003 88.9919 0 89.5 0C90.0087 0 90.3643 0.0200003 90.5682 0.0800005C90.7714 0.14 90.8984 0.24 90.9492 0.38C90.9746 0.480001 91 0.680001 91 1C91 1.32 90.9746 1.52 90.9492 1.62C90.8984 1.76 90.7714 1.86 90.5682 1.92C90.3643 1.96 90.0087 2 89.5 2ZM89.5 1.74C90.0595 1.74 90.3897 1.7 90.4913 1.64C90.5936 1.58 90.6444 1.36 90.6444 1.02C90.6444 0.659998 90.5936 0.46 90.4913 0.38C90.3897 0.32 90.0595 0.28 89.5 0.28C88.9411 0.28 88.6103 0.32 88.5087 0.38C88.4071 0.44 88.3563 0.659998 88.3563 1.02C88.3563 1.38 88.4071 1.58 88.5087 1.64C88.6103 1.7 88.9411 1.74 89.5 1.74Z" fill="#8E8E8E"/>
<path d="M93.5242 0.812497L94.4917 0H94.9758L93.7901 0.979167L95 2H94.5401L93.5242 1.125H93.4758L92.4593 2H92L93.2093 0.979167L92.0242 0H92.5077L93.4758 0.812497H93.5242Z" fill="#8E8E8E"/>
<path d="M134.5 2C133.992 2 133.636 1.98 133.432 1.92C133.229 1.86 133.102 1.78 133.051 1.62C133.025 1.52 133 1.32 133 1C133 0.680001 133.025 0.480001 133.051 0.38C133.102 0.24 133.229 0.14 133.432 0.0800005C133.636 0.0200003 133.992 0 134.5 0C135.008 0 135.365 0.0200003 135.568 0.0800005C135.771 0.14 135.898 0.24 135.949 0.38C135.975 0.480001 136 0.680001 136 1C136 1.32 135.975 1.52 135.949 1.62C135.898 1.76 135.771 1.86 135.568 1.92C135.365 1.96 135.008 2 134.5 2ZM134.5 1.74C135.059 1.74 135.39 1.7 135.492 1.64C135.593 1.58 135.644 1.36 135.644 1.02C135.644 0.659998 135.593 0.46 135.492 0.38C135.39 0.32 135.059 0.28 134.5 0.28C133.941 0.28 133.61 0.32 133.508 0.38C133.407 0.44 133.356 0.659998 133.356 1.02C133.356 1.38 133.407 1.58 133.508 1.64C133.61 1.7 133.941 1.74 134.5 1.74Z" fill="#8E8E8E"/>
<path d="M139.638 0.767676C139.676 0.727275 139.714 0.646463 139.714 0.565656C139.714 0.424243 139.657 0.343434 139.562 0.30303C139.467 0.262626 139.276 0.242425 139.01 0.242425C138.667 0.242425 138.476 0.262627 138.381 0.323233C138.324 0.363637 138.286 0.484849 138.286 0.666668H138.019C138.019 0.383839 138.096 0.181818 138.229 0.10101C138.343 0.020202 138.609 0 139.01 0C139.391 0 139.638 0.040404 139.771 0.10101C139.923 0.181818 140 0.343434 140 0.585856C140 0.707069 139.981 0.787881 139.962 0.848483C139.923 0.909089 139.885 0.949495 139.828 0.989901C139.943 1.0303 140 1.15151 140 1.37374C140 1.63636 139.923 1.81818 139.79 1.89899C139.676 1.97979 139.41 2 139.01 2C138.571 2 138.286 1.95959 138.172 1.87879C138.057 1.79798 138 1.59596 138 1.29293H138.267C138.267 1.51515 138.305 1.63636 138.381 1.67677C138.457 1.71717 138.667 1.73737 139.029 1.73737C139.353 1.73737 139.543 1.71717 139.619 1.67677C139.695 1.63636 139.733 1.53535 139.733 1.35353C139.733 1.29293 139.714 1.23232 139.676 1.19192C139.638 1.15151 139.581 1.13131 139.524 1.13131H138.762V0.868688H139.524C139.543 0.828282 139.6 0.808082 139.638 0.767676Z" fill="#8E8E8E"/>
<path d="M25 16V14H25.3653V14.8125H25.7304L27.2435 14H27.8957L26.1218 14.9375L28 16H27.3739L25.7044 15.0833H25.3391V16H25Z" fill="#8E8E8E"/>
<path d="M28 15.75H28.1551C28.2327 15.75 28.3103 15.6875 28.3621 15.5833C28.4137 15.4375 28.4396 15.2083 28.4396 14.8958V14.8542V14.8125V14.7708C28.4396 14.7291 28.4396 14.7083 28.4396 14.6666C28.4396 14.625 28.4396 14.6042 28.4396 14.5625V14H31V16H30.6379V14.25H28.8275V14.625V14.75C28.8275 14.9375 28.8275 15.1042 28.8017 15.2292C28.7759 15.4375 28.75 15.625 28.6724 15.7292C28.5948 15.875 28.4913 15.9583 28.3879 15.9583H28.0258V15.75H28Z" fill="#8E8E8E"/>
<path d="M34 14H33.4661L31.3559 15.7708V14H31V16H31.5593L33.6441 14.25V16H34V14Z" fill="#8E8E8E"/>
<path d="M34 14H34.3784V14.8542H36.6216V14H37V16H36.6216V15.1042H34.3784V16H34V14Z" fill="#8E8E8E"/>
<path d="M41 14H40.4661L38.3559 15.7708V14H38V16H38.5593L40.6441 14.25V16H41V14Z" fill="#8E8E8E"/>
<path d="M41 16V14H41.3652V14.8125H41.7305L43.2435 14H43.8957L42.1217 14.9375L44 16H43.3739L41.7043 15.0833H41.3391V16H41Z" fill="#8E8E8E"/>
<path d="M45.7561 14L47 16H46.6098L46.3415 15.5625H44.6586L44.3902 16H44L45.2439 14H45.7561ZM46.1708 15.2916L45.5366 14.2292H45.4391L44.8049 15.2916H46.1708Z" fill="#8E8E8E"/>
<path d="M49 16V14H49.3653V14.8125H49.7305L51.2435 14H51.8956L50.1218 14.9375L52 16H51.3739L49.7044 15.0833H49.3391V16H49Z" fill="#8E8E8E"/>
<path d="M52 16V14H54.2358C54.4905 14 54.6604 14.0625 54.8018 14.1666C54.9434 14.2708 55 14.4375 55 14.6458C55 14.8542 54.9434 15.0208 54.8018 15.125C54.6604 15.2292 54.4623 15.2709 54.2358 15.2709H52.4246V16H52ZM52.4246 15H54.2358C54.349 15 54.4339 14.9791 54.5188 14.9167C54.5754 14.8542 54.632 14.7708 54.632 14.6458C54.632 14.5208 54.6037 14.4166 54.5188 14.375C54.4623 14.3125 54.349 14.2917 54.2358 14.2917H52.4246V15Z" fill="#8E8E8E"/>
<path d="M56.7562 14L58 16H57.6099L57.3416 15.5625H55.6586L55.3903 16H55L56.244 14H56.7562ZM57.1708 15.2916L56.5367 14.2292H56.4391L55.805 15.2916H57.1708Z" fill="#8E8E8E"/>
<path d="M58.3851 15C58.3851 15.3673 58.4401 15.5714 58.5501 15.6326C58.6601 15.6939 58.9633 15.7347 59.5134 15.7347C60.0092 15.7347 60.3117 15.7143 60.4217 15.6735C60.5593 15.6326 60.6143 15.4898 60.6143 15.2857H61C61 15.5918 60.9175 15.7959 60.725 15.8775C60.5593 15.9592 60.1467 16 59.4859 16C58.8251 16 58.4126 15.9388 58.2475 15.8367C58.0825 15.7143 58 15.449 58 15C58 14.551 58.0825 14.2653 58.2475 14.1632C58.4126 14.0408 58.8251 14 59.4859 14C60.1467 14 60.5318 14.0408 60.725 14.1224C60.89 14.2041 60.9725 14.4081 60.9725 14.7143H60.5868C60.5868 14.5102 60.5318 14.3673 60.4217 14.3265C60.3117 14.2857 60.0092 14.2653 59.5134 14.2653C58.9908 14.2653 58.6601 14.3061 58.5501 14.3673C58.4401 14.4081 58.3851 14.6327 58.3851 15Z" fill="#8E8E8E"/>
<path d="M62.5 16C61.9919 16 61.6357 15.98 61.4325 15.92C61.2292 15.86 61.1022 15.76 61.0514 15.62C61 15.52 61 15.32 61 15C61 14.68 61.026 14.48 61.0514 14.38C61.1022 14.24 61.2292 14.14 61.4325 14.08C61.6357 14.02 61.9919 14 62.5 14C63.0087 14 63.3643 14.02 63.5682 14.08C63.7714 14.14 63.8984 14.22 63.9492 14.38C63.9746 14.48 64 14.68 64 15C64 15.32 63.9746 15.52 63.9492 15.62C63.8984 15.76 63.7714 15.86 63.5682 15.92C63.3897 15.98 63.0087 16 62.5 16ZM62.5 15.74C63.0595 15.74 63.3897 15.7 63.4913 15.64C63.5936 15.58 63.6444 15.36 63.6444 15C63.6444 14.64 63.5936 14.44 63.4913 14.36C63.3897 14.3 63.0595 14.26 62.5 14.26C61.9411 14.26 61.6103 14.3 61.5087 14.36C61.4071 14.42 61.3563 14.64 61.3563 15C61.3563 15.36 61.4071 15.56 61.5087 15.64C61.6103 15.7 61.9411 15.74 62.5 15.74Z" fill="#8E8E8E"/>
<path d="M65 14H67V14.268H66.1482V16H65.8711V14.268H65.0198V14H65Z" fill="#8E8E8E"/>
<path d="M71 16H70.6997V14.0206H71V16ZM68 14H68.3003V14.7216H69.6715C69.8642 14.7216 70.0141 14.7629 70.0997 14.866C70.2073 14.969 70.2715 15.134 70.2715 15.3402C70.2715 15.5464 70.2287 15.7113 70.1211 15.8145C70.0141 15.9175 69.8642 15.9588 69.6715 15.9588H68V14ZM68.3003 15.0103V15.732H69.6715C69.7572 15.732 69.8428 15.7113 69.8856 15.6495C69.9285 15.5876 69.9713 15.5052 69.9713 15.3608C69.9713 15.2371 69.9499 15.1546 69.8856 15.0928C69.8428 15.0309 69.7572 15.0103 69.6715 15.0103H68.3003Z" fill="#8E8E8E"/>
<path d="M76 14H75.4659L73.3556 15.7708V14H73V16H73.5595L75.6437 14.25V16H76V14Z" fill="#8E8E8E"/>
<path d="M78.3563 14.8067V14H80.8222V16.0925H81V17H80.6691V16.4202H78.3309V17H78V16.0925H78.1778C78.2286 15.9412 78.254 15.7143 78.3048 15.437C78.3309 15.1848 78.3563 14.9832 78.3563 14.8067ZM80.4659 14.3277H78.7373V14.8067C78.7373 14.9832 78.7119 15.2101 78.6865 15.4622C78.6611 15.7143 78.6103 15.916 78.5849 16.0925H80.4659V14.3277Z" fill="#8E8E8E"/>
<path d="M82.5 16C81.9913 16 81.6357 15.98 81.4325 15.92C81.2292 15.86 81.1016 15.76 81.0508 15.62C81 15.52 81 15.32 81 15C81 14.68 81.0254 14.48 81.0508 14.38C81.1016 14.24 81.2292 14.14 81.4325 14.08C81.6357 14.02 81.9913 14 82.5 14C83.0087 14 83.3643 14.02 83.5675 14.08C83.7714 14.14 83.8984 14.22 83.9492 14.38C83.9746 14.48 84 14.68 84 15C84 15.32 83.9746 15.52 83.9492 15.62C83.8984 15.76 83.7714 15.86 83.5675 15.92C83.3897 15.98 83.0341 16 82.5 16ZM82.5 15.74C83.0595 15.74 83.3897 15.7 83.4913 15.64C83.5929 15.58 83.6437 15.36 83.6437 15C83.6437 14.64 83.5929 14.44 83.4913 14.36C83.3897 14.3 83.0595 14.26 82.5 14.26C81.9405 14.26 81.6103 14.3 81.5087 14.36C81.4071 14.42 81.3563 14.64 81.3563 15C81.3563 15.36 81.4071 15.56 81.5087 15.64C81.6103 15.7 81.9405 15.74 82.5 15.74Z" fill="#8E8E8E"/>
<path d="M85 15.75H85.1557C85.2332 15.75 85.3107 15.6875 85.3624 15.5833C85.4141 15.4375 85.4399 15.2083 85.4399 14.8958V14.8542V14.8125V14.7708C85.4399 14.7291 85.4399 14.7083 85.4399 14.6666C85.4399 14.625 85.4399 14.6042 85.4399 14.5625V14H88V16H87.6382V14.25H85.8275V14.625V14.75C85.8275 14.9375 85.8275 15.1042 85.8017 15.2292C85.7758 15.4375 85.75 15.625 85.6725 15.7292C85.595 15.875 85.4916 15.9583 85.3882 15.9583H85.0258V15.75H85Z" fill="#8E8E8E"/>
<path d="M88 16H88.3185V14.268H90V14H88V16Z" fill="#8E8E8E"/>
<path d="M91.5 16C90.9913 16 90.6357 15.98 90.4325 15.92C90.2286 15.86 90.1016 15.76 90.0508 15.62C90 15.52 90 15.32 90 15C90 14.68 90.0254 14.48 90.0508 14.38C90.1016 14.24 90.2286 14.14 90.4325 14.08C90.6357 14.02 90.9913 14 91.5 14C92.0081 14 92.3643 14.02 92.5675 14.08C92.7708 14.14 92.8984 14.22 92.9492 14.38C92.9746 14.48 93 14.68 93 15C93 15.32 92.9746 15.52 92.9492 15.62C92.8984 15.76 92.7708 15.86 92.5675 15.92C92.3643 15.98 92.0081 16 91.5 16ZM91.5 15.74C92.0595 15.74 92.3897 15.7 92.4913 15.64C92.5929 15.58 92.6437 15.36 92.6437 15C92.6437 14.64 92.5929 14.44 92.4913 14.36C92.3897 14.3 92.0595 14.26 91.5 14.26C90.9405 14.26 90.6103 14.3 90.5087 14.36C90.4071 14.42 90.3556 14.64 90.3556 15C90.3556 15.36 90.4071 15.56 90.5087 15.64C90.6103 15.7 90.9405 15.74 91.5 15.74Z" fill="#8E8E8E"/>
<path d="M94 15.75H94.155C94.2326 15.75 94.3107 15.6875 94.3624 15.5833C94.4141 15.4375 94.4399 15.2083 94.4399 14.8958V14.8542V14.8125V14.7708C94.4399 14.7291 94.4399 14.7083 94.4399 14.6666C94.4399 14.625 94.4399 14.6042 94.4399 14.5625V14H97V16H96.6376V14.25H94.8275V14.625V14.75C94.8275 14.9375 94.8275 15.1042 94.8017 15.2292C94.7758 15.4375 94.75 15.625 94.6725 15.7292C94.595 15.875 94.4916 15.9583 94.3882 15.9583H94.0258V15.75H94Z" fill="#8E8E8E"/>
<path d="M97 14H99V14.2708H97.3046V14.8542H98.9348V15.125H97.3046V15.7292H99V16H97V14Z" fill="#8E8E8E"/>
<path d="M99 14H101V14.268H100.149V16H99.8711V14.268H99.0198V14H99Z" fill="#8E8E8E"/>
<path d="M105 14H104.466L102.356 15.7708V14H102V16H102.559L104.644 14.25V16H105V14Z" fill="#8E8E8E"/>
<path d="M109 14.0206V16H108.629V15.2784H106.823C106.717 15.2784 106.611 15.299 106.531 15.3402C106.451 15.3814 106.398 15.4433 106.398 15.5052V16H106.027V15.5052C106.027 15.4021 106.053 15.3196 106.133 15.2578C106.186 15.2165 106.265 15.1753 106.345 15.134C106.239 15.0928 106.159 15.0515 106.106 14.9897C106.027 14.9072 106 14.7835 106 14.6186C106 14.433 106.053 14.268 106.186 14.1649C106.292 14.0412 106.478 14 106.69 14H109V14.0206ZM108.629 15.0309V14.2887H106.876C106.744 14.2887 106.637 14.3093 106.584 14.3505C106.478 14.4124 106.425 14.5155 106.425 14.6598C106.425 14.8041 106.478 14.9072 106.557 14.9691C106.637 15.0103 106.717 15.0309 106.876 15.0309H108.629Z" fill="#8E8E8E"/>
</g>
<defs>
<clipPath id="clip0_2422_1239">
<rect width="140" height="17" fill="white"/>
</clipPath>
</defs>
</svg>
