<svg width="99" height="65" viewBox="0 0 99 65" fill="none" xmlns="http://www.w3.org/2000/svg">
<g clip-path="url(#clip0_2422_1482)">
<path d="M0 65V53H5V54.7142H1.89648V65H0Z" fill="#8E8E8E"/>
<path d="M13 65H10.9819L10.6363 62.8228H8.18172L7.8363 65H6L8.03632 53H10.9637L13 65ZM8.43634 61.1944H10.3637L9.39999 55.1257L8.43634 61.1944Z" fill="#8E8E8E"/>
<path d="M16.9879 56.0166C16.9879 55.4916 16.8932 55.1367 16.7042 54.9525C16.515 54.7684 16.2621 54.6759 15.9451 54.6759C15.6278 54.6759 15.3717 54.7628 15.1767 54.9358C14.9816 55.1091 14.8841 55.4078 14.8841 55.8324V56.7876H13.0366V55.9163C13.0366 54.9667 13.2834 54.243 13.7775 53.7457C14.2713 53.2487 15.0121 53 16 53C16.9879 53 17.7346 53.2543 18.2408 53.7624C18.7469 54.271 19 55.0003 19 55.9499V56.2515C19 57.5027 18.5304 58.3073 17.5916 58.6648C18.1037 58.8658 18.4663 59.176 18.6799 59.595C18.8932 60.0137 19 60.5249 19 61.1285V62.0501C19 63.0001 18.7469 63.729 18.2408 64.2372C17.7346 64.7457 16.9879 65 16 65C15.0121 65 14.265 64.7457 13.7592 64.2372C13.2529 63.729 13 63.0001 13 62.0501V60.7598H14.9025V62.1676C14.9025 62.5922 14.9967 62.8909 15.1859 63.0643C15.3749 63.2376 15.6279 63.3237 15.9451 63.3237C16.2621 63.3237 16.515 63.2346 16.7042 63.0557C16.8932 62.8771 16.9879 62.5251 16.9879 61.9998V61.0782C16.9879 60.5309 16.8841 60.1453 16.6768 59.9216C16.4694 59.6983 16.1341 59.5865 15.6708 59.5865H15.1768V57.9106H15.7805C16.1583 57.9106 16.4542 57.8211 16.6676 57.6425C16.8808 57.4639 16.9879 57.1396 16.9879 56.6705L16.9879 56.0166Z" fill="#8E8E8E"/>
<path d="M26 60.4917V62.0501C26 63.0001 25.7469 63.729 25.2408 64.2372C24.7348 64.7457 23.9879 65 23 65C22.0121 65 21.265 64.7457 20.7592 64.2372C20.2529 63.729 20 63.0001 20 62.0501V55.9499C20 55.0003 20.2529 54.271 20.7592 53.7624C21.265 53.2543 22.0121 53 23 53C23.9879 53 24.7348 53.2543 25.2408 53.7624C25.7469 54.271 26 55.0003 26 55.9499V57.0892H24.0975V55.8324C24.0975 55.4078 24.0029 55.1091 23.8141 54.9357C23.6249 54.7628 23.3719 54.6759 23.0549 54.6759C22.7377 54.6759 22.4846 54.7628 22.2958 54.9357C22.1065 55.1091 22.0121 55.4078 22.0121 55.8324V62.1676C22.0121 62.5922 22.1065 62.8883 22.2958 63.0557C22.4846 63.2234 22.7377 63.307 23.0549 63.307C23.3719 63.307 23.6249 63.2234 23.8141 63.0557C24.0029 62.8883 24.0975 62.5922 24.0975 62.1676V60.4917H26Z" fill="#8E8E8E"/>
<path d="M27 53H33V54.7142H30.9704V65H29.0294V54.7142H27V53Z" fill="#8E8E8E"/>
<path d="M35.9816 53C36.9999 53 37.7577 53.2513 38.2548 53.7543C38.7519 54.2574 39 54.9945 39 55.9655V57.5256C39 58.497 38.7519 59.2342 38.2548 59.7372C37.7578 60.2402 36.9999 60.4915 35.9816 60.4915H35.0247V65H33V53H35.9816ZM35.0247 54.7142V58.7769H35.9816C36.3005 58.7769 36.5458 58.6972 36.7178 58.537C36.8897 58.3772 36.9757 58.0801 36.9757 57.6458V55.8457C36.9757 55.4114 36.8897 55.1143 36.7178 54.9541C36.5458 54.7943 36.3005 54.7142 35.9816 54.7142H35.0247Z" fill="#8E8E8E"/>
<path d="M40 55.9499C40 55.0002 40.2574 54.271 40.7721 53.7624C41.2873 53.2543 42.0298 53 42.9998 53C43.9702 53 44.7127 53.2543 45.2275 53.7624C45.7426 54.271 46 55.0002 46 55.9499V62.0501C46 63.0001 45.7426 63.729 45.2275 64.2372C44.7127 64.7457 43.9702 65 42.9998 65C42.0298 65 41.2873 64.7457 40.7721 64.2372C40.2574 63.729 40 63.0001 40 62.0501V55.9499ZM41.9759 62.1676C41.9759 62.5922 42.0686 62.8909 42.2544 63.0642C42.4399 63.2376 42.6885 63.3237 42.9998 63.3237C43.3111 63.3237 43.5597 63.2376 43.7456 63.0642C43.931 62.8909 44.0241 62.5922 44.0241 62.1676V55.8324C44.0241 55.4078 43.931 55.1091 43.7456 54.9357C43.5597 54.7628 43.3111 54.6759 42.9998 54.6759C42.6885 54.6759 42.4399 54.7628 42.2544 54.9357C42.0686 55.1091 41.9759 55.4078 41.9759 55.8324V62.1676Z" fill="#8E8E8E"/>
<path d="M48.9429 65H47V52.7338H48.6847V60.4964L49.3724 57.798L50.9198 52.7338H53V65H51.2981V56.3611L50.5243 59.3749L48.9429 65ZM52.0374 50C52.0374 50.596 51.871 51.0689 51.5386 51.4193C51.2063 51.7698 50.7018 51.9452 50.026 51.9452C49.3609 51.9452 48.871 51.7698 48.5558 51.4193C48.2407 51.0689 48.0716 50.596 48.0487 50H49.2179C49.2408 50.3275 49.3181 50.5434 49.45 50.6483C49.5816 50.7535 49.7736 50.8062 50.026 50.8062C50.2895 50.8062 50.4926 50.7535 50.636 50.6483C50.7794 50.5434 50.8624 50.3275 50.8854 50H52.0374Z" fill="#8E8E8E"/>
<path d="M64 65H61.9817L61.6363 62.8228H59.1821L58.8367 65H57L59.0365 53H61.9635L64 65ZM59.4365 61.1944H61.3637L60.3999 55.1257L59.4365 61.1944Z" fill="#8E8E8E"/>
<path d="M64 63.2882C64.2228 63.2882 64.408 63.2768 64.5555 63.2539C64.7022 63.2311 64.8226 63.177 64.9167 63.0913C65.0109 63.0057 65.0783 62.8804 65.1195 62.7147C65.1607 62.5494 65.187 62.3293 65.1988 62.0555L65.5161 53H71V64.9829H69.0253V54.7118H67.3323L67.1209 61.9531C67.0856 63.0483 66.8475 63.8301 66.4066 64.2982C65.966 64.7662 65.2635 65 64.2997 65H64L64 63.2882Z" fill="#8E8E8E"/>
<path d="M72 65V53H74.0247V57.5085H74.9816C75.9999 57.5085 76.7578 57.7602 77.2548 58.2628C77.7519 58.7658 78 59.503 78 60.4744V62.0341C78 63.0058 77.7519 63.743 77.2548 64.2457C76.7578 64.7487 75.9999 65 74.9816 65H72ZM74.9816 63.2858C75.3005 63.2858 75.5458 63.2061 75.7178 63.0455C75.8897 62.8857 75.9757 62.5886 75.9757 62.1543V60.3542C75.9757 59.9202 75.8897 59.6231 75.7178 59.463C75.5458 59.3028 75.3005 59.2227 74.9816 59.2227H74.0247V63.2858H74.9816Z" fill="#8E8E8E"/>
<path d="M79 65C79.0937 64.7716 79.1518 64.5458 79.1756 64.3227C79.1986 64.1 79.2103 63.8403 79.2103 63.5428V61.6913C79.2103 61.0632 79.3009 60.5285 79.4824 60.0884C79.6635 59.6487 79.9999 59.3314 80.4912 59.1369C79.649 58.7487 79.2279 57.9371 79.2279 56.7027V55.7599C79.2279 54.8344 79.4531 54.1429 79.9035 53.6857C80.3535 53.2288 81.0817 53 82.0878 53H85V65H83.0701V60.1143H82.4035C81.9586 60.1143 81.6374 60.2288 81.4384 60.4572C81.2394 60.686 81.1402 61.08 81.1402 61.6398V63.5256C81.1402 63.7655 81.1371 63.9657 81.1316 64.1255C81.1254 64.2857 81.1141 64.4173 81.0965 64.5199C81.079 64.6228 81.0583 64.7086 81.0349 64.7773C81.0114 64.8455 80.988 64.9203 80.965 65L79 65ZM82.1401 54.7142C81.801 54.7142 81.5528 54.8115 81.3947 55.0056C81.2366 55.2001 81.1578 55.5143 81.1578 55.9483V57.1313C81.1578 57.6115 81.2601 57.9429 81.4649 58.1255C81.6694 58.3086 81.9532 58.4001 82.3157 58.4001H83.0701V54.7142L82.1401 54.7142Z" fill="#8E8E8E"/>
<path d="M87.9022 65H86V53H87.9022V58.1427H90.0636V53H92V65H90.0636V59.8569H87.9022V65Z" fill="#8E8E8E"/>
<path d="M99 60.4917V62.0501C99 63.0001 98.7465 63.729 98.2406 64.2372C97.7344 64.7457 96.9877 65 96 65C95.0119 65 94.2648 64.7457 93.759 64.2372C93.2527 63.729 93 63.0001 93 62.0501V55.9499C93 55.0003 93.2527 54.271 93.759 53.7624C94.2648 53.2543 95.0119 53 96 53C96.9877 53 97.7344 53.2543 98.2406 53.7624C98.7465 54.271 99 55.0003 99 55.9499V57.0892H97.0975V55.8324C97.0975 55.4078 97.0027 55.1091 96.8139 54.9357C96.6247 54.7628 96.3715 54.6759 96.0545 54.6759C95.7375 54.6759 95.4844 54.7628 95.2956 54.9357C95.1063 55.1091 95.0119 55.4078 95.0119 55.8324V62.1676C95.0119 62.5922 95.1063 62.8883 95.2956 63.0557C95.4844 63.2234 95.7375 63.307 96.0545 63.307C96.3715 63.307 96.6247 63.2234 96.8139 63.0557C97.0027 62.8883 97.0975 62.5922 97.0975 62.1676V60.4917H99Z" fill="#8E8E8E"/>
<path d="M71 40H29V0H51.5441V5.29412H34.5588V34.7059H65.4412V18.2353H71V40Z" fill="#8E8E8E"/>
<path d="M71 0H55V15H71V0Z" fill="#8E8E8E"/>
</g>
<defs>
<clipPath id="clip0_2422_1482">
<rect width="99" height="65" fill="white"/>
</clipPath>
</defs>
</svg>
