<svg width="133" height="37" viewBox="0 0 133 37" fill="none" xmlns="http://www.w3.org/2000/svg">
<g clip-path="url(#clip0_2422_2613)">
<path d="M133 35H102V35.3556H133V35Z" fill="#8E8E8E"/>
<path d="M31 35H0V35.3556H31V35Z" fill="#8E8E8E"/>
<path d="M92.6174 33.034V36.2248L90.2527 33.034H89.9328V36.9665H90.3207V33.7752L92.6801 36.9665H93V33.034H92.6174ZM81.6182 36.3257C81.3352 36.545 81.0097 36.6293 80.6586 36.6293C79.7567 36.6293 79.0909 35.9327 79.0909 34.9998C79.0909 34.0617 79.7567 33.3712 80.6637 33.3712C81.0939 33.3712 81.461 33.5056 81.7702 33.8313L82.0115 33.5674C81.6865 33.1914 81.2038 33 80.6483 33C79.5259 33 78.7082 33.8484 78.7082 34.9998C78.7082 36.1517 79.5259 37 80.6426 37C81.1514 37 81.6444 36.8312 81.9906 36.5V34.9998H81.6182L81.6182 36.3257ZM70.6031 36.9665H70.9908V33.034H70.6031V36.9665ZM61.5439 37C62.4826 37 62.9124 36.5055 62.9124 35.9272C62.9124 34.4946 60.6524 35.1461 60.6524 34.0673C60.6524 33.674 60.9513 33.3543 61.6225 33.3543C61.9475 33.3543 62.3146 33.4607 62.6293 33.6799L62.7603 33.3487C62.4666 33.1294 62.0365 33 61.6225 33C60.689 33 60.2698 33.5 60.2698 34.0789C60.2698 35.5339 62.5293 34.8706 62.5293 35.9497C62.5293 36.3373 62.2304 36.6459 61.5439 36.6459C61.0612 36.6459 60.5945 36.4438 60.3326 36.1687L60.1805 36.4885C60.4531 36.7922 60.993 37 61.5439 37ZM50.5653 36.6067V35.1461H52.4637V34.7922H50.5653V33.3935H52.6945V33.034H50.1774V36.9665H52.7732V36.6067H50.5653ZM39.3879 36.6067V33.3935H40.4734C41.4484 33.3935 42.0777 34.0562 42.0777 34.9998C42.0777 35.9438 41.4484 36.6067 40.4734 36.6067H39.3879ZM39 36.9665H40.494C41.6688 36.9665 42.4606 36.1573 42.4606 34.9998C42.4606 33.8429 41.6688 33.034 40.494 33.034H39V36.9665Z" fill="#8E8E8E"/>
<path d="M125 0C116.185 0.00322612 115 9 115 9C123.57 8.39125 125 0 125 0Z" fill="#8E8E8E"/>
<path d="M68.0989 9.59983C68.2155 9.9909 68.625 10.2 69.2151 10.1667C69.6112 10.1444 69.9702 9.95532 70.299 9.66673C70.9773 9.06652 71.1635 8.32219 70.857 7.43354C70.857 7.41119 70.8461 7.37785 70.8243 7.33315C70.4739 6.46669 69.7846 6.01127 68.7558 6.0002C67.8362 5.99034 66.9543 6.33739 66.1943 7.1004C65.8532 7.44289 65.5815 7.87783 65.3408 8.3669C65.2093 8.6336 65.056 9.03379 64.8811 9.56688C64.4427 9.47808 64.0163 9.43338 63.6002 9.43338C62.1992 9.43338 60.9402 9.84456 59.824 10.6669C58.4012 11.7334 57.6896 13.1001 57.6896 14.7665C57.6896 16.4776 58.434 17.8777 59.9229 18.9665C59.2659 19.1666 58.7075 19.4779 58.2476 19.8999C57.3286 20.7668 57 21.7777 57.2627 22.933C57.4817 23.9331 58.0398 24.5552 58.9374 24.8C57.6896 25.1778 57.0438 25.8664 57 26.8664C57 27.0888 57.0328 27.2999 57.0987 27.5C57.5145 29.1664 59.5066 30 63.0748 30C64.6289 30 66.0191 29.7557 67.2449 29.2667C69.5217 28.3779 70.6599 26.9221 70.6599 24.8998C70.6599 23.9668 70.3318 23.2444 69.6749 22.7331C69.0183 22.2221 68.1917 21.8944 67.1956 21.7499C66.1997 21.6054 64.837 21.5335 63.1075 21.5335C62.6257 21.5335 62.1772 21.5001 61.7613 21.4337C60.4696 21.2334 59.7472 20.8335 59.5943 20.2334C59.5286 19.8111 59.8134 19.4997 60.4482 19.3001C61.3671 19.8332 62.4183 20.1001 63.6002 20.1001C65.0014 20.1001 66.26 19.6999 67.3765 18.8999C68.7994 17.8111 69.5104 16.4332 69.5104 14.7665C69.5104 14.0112 69.3355 13.2779 68.9853 12.5669C68.2626 11.1002 67.0591 10.1329 65.3732 9.66675C65.4825 9.13314 65.7672 8.67785 66.2271 8.30046C66.9496 7.7226 67.589 7.66781 67.9673 8.26668C68.0467 8.39232 68.077 8.56693 68.0989 8.76673C68.077 9.21139 68.0666 9.4913 68.0989 9.59983ZM60.7107 25.2333C62.1556 25.3443 63.7752 25.4331 65.5702 25.5001C66.3146 25.5666 66.8511 25.7776 67.1792 26.133C67.5955 26.6664 67.442 27.3109 66.7195 28.0664C65.8005 29.0223 64.5963 29.4999 63.1075 29.4999C62.8228 29.4999 62.5274 29.4776 62.2212 29.4329C60.9514 29.211 60.1958 28.5888 59.9551 27.5666C59.7364 26.6555 59.9883 25.8778 60.7107 25.2333ZM65.6689 15.9665C65.9971 18.033 65.7564 19.1779 64.9465 19.3999C64.7493 19.4446 64.5304 19.4109 64.2898 19.3001C63.4358 18.8552 62.7026 17.4775 62.0895 15.1665C61.5864 13.2555 61.4874 11.8443 61.7942 10.9334C61.991 10.3998 62.2867 10.1112 62.681 10.0665C62.9216 10.0665 63.1952 10.1891 63.5017 10.4333C64.2023 11.1002 64.815 12.3887 65.3408 14.2999C65.4719 14.8777 65.5815 15.4334 65.6689 15.9665Z" fill="#8E8E8E"/>
<path d="M133 21.7547C132.98 21.9277 132.891 21.9777 132.739 22H124.842C124.679 21.9955 124.617 21.9447 124.589 21.883C124.56 21.8213 124.562 21.7419 124.562 21.7419C124.566 21.6978 124.582 21.6626 124.604 21.6332C124.714 21.4989 124.878 21.4886 124.878 21.4886C125.636 21.3682 126.062 20.939 126.148 20.1934C126.213 19.7919 126.202 19.2231 126.115 18.487L125.593 13.3009C125.31 11.0481 124.57 9.93276 123.374 9.95542C123.24 9.95339 123.236 9.96202 123.152 9.96975C122.281 10.0814 121.721 10.8139 121.547 12.1302C121.46 12.7323 121.416 13.591 121.416 14.7064V18.487C121.416 20.0708 121.797 21.0189 122.559 21.3308C122.708 21.3885 122.869 21.4335 123.034 21.4745C123.039 21.4742 123.042 21.4687 123.048 21.4687C123.125 21.4687 123.19 21.5067 123.237 21.5619C123.307 21.6061 123.36 21.6594 123.374 21.7325C123.331 21.8886 123.255 21.9777 123.146 22H115.257C115.219 21.9887 115.19 21.9947 115.166 21.9783C115.073 21.9398 115 21.8496 115 21.741C115 21.6306 115.066 21.5481 115.161 21.5108C115.192 21.496 115.184 21.5037 115.23 21.4932C116.099 21.3818 116.576 20.9185 116.75 20.0933C116.837 19.6916 116.88 19.1562 116.88 18.487V15.2749C116.88 13.7583 116.674 12.788 116.261 12.3645C115.999 12.1188 115.632 11.927 115.24 11.8154C115.203 11.7952 115.194 11.7958 115.174 11.7795C115.101 11.7325 115.042 11.6518 115.042 11.5569C115.042 11.4141 115.153 11.3017 115.291 11.2955L115.325 11.2918C117.348 11.2476 119.164 10.5465 120.861 9.18585L121.013 9.04646C121.071 8.98388 121.159 9.00263 121.159 9.00263C121.302 9.00263 121.418 9.12155 121.418 9.26831L121.416 9.45247V10.5238C122.221 9.56489 123.298 9.08509 124.647 9.08509C127.801 9.10753 129.628 10.6691 130.129 13.7693L130.651 18.487C130.846 20.0708 131.336 21.0189 132.119 21.3308C132.289 21.389 132.458 21.4347 132.627 21.4759L132.775 21.516C132.775 21.516 132.997 21.5674 133 21.7547Z" fill="#8E8E8E"/>
<path d="M98.3629 18.0636C98.0968 18.5045 97.7415 18.8797 97.2977 19.1885C96.2101 19.9162 95.0001 20.0044 93.6685 19.4531C92.2035 18.8357 91.2819 17.6447 90.9049 15.8803L95.7663 15.3182C96.9426 15.1639 97.6974 14.6346 98.0302 13.7306C98.3187 12.8041 98.1189 11.9001 97.4307 11.0177C97.32 10.8856 97.1867 10.7421 97.0313 10.588C95.9437 9.52969 94.5006 9 92.7029 9C90.9492 9 89.5065 9.38571 88.3747 10.1578C86.5763 11.4148 85.7997 13.4216 86.0438 16.1783C86.0882 16.6411 86.1771 17.0605 86.3102 17.4353C86.5763 18.3613 87.0427 19.1885 87.7086 19.9162C89.0401 21.3056 90.7275 22 92.7693 22C96.1435 22 98.2088 20.6785 98.9853 17.9656C99.0115 17.8469 99.0192 17.685 98.8624 17.6335C98.7513 17.6117 98.5852 17.7547 98.3629 18.0636ZM90.8052 11.7123C91.1603 10.235 91.7818 9.49624 92.6696 9.49624C92.8249 9.49624 92.9804 9.5182 93.1358 9.56218C93.9572 9.76068 94.445 10.654 94.6008 12.2416V12.5397C94.6448 14.1493 93.3798 15.1084 90.8052 15.4172C90.4944 14.2264 90.4944 12.9915 90.8052 11.7123Z" fill="#8E8E8E"/>
<path d="M114 18.0141C114 17.869 113.881 17.7409 113.735 17.7514C113.6 17.7611 113.538 17.8376 113.538 17.8376L113.508 17.8785C113.491 17.9026 113.441 17.9932 113.422 18.0293C113.155 18.4702 112.774 18.8797 112.329 19.1885C111.238 19.9162 110.025 20.0044 108.69 19.4531C107.221 18.8357 106.297 17.6447 105.918 15.8803L110.793 15.3182C111.973 15.1639 112.729 14.6346 113.063 13.7306C113.353 12.8041 113.152 11.9001 112.462 11.0177C112.351 10.8856 112.217 10.7421 112.062 10.588C110.971 9.52969 109.524 9 107.721 9C105.963 9 104.516 9.38571 103.381 10.1578C101.578 11.4148 100.799 13.4216 101.044 16.1783C101.088 16.6411 101.177 17.0605 101.311 17.4353C101.578 18.3613 102.046 19.1885 102.713 19.9162C104.049 21.3056 105.741 22 107.788 22C111.171 22 113.219 20.7566 113.998 18.0437L114 18.0141ZM105.818 11.7123C106.174 10.235 106.798 9.49624 107.688 9.49624C107.844 9.49624 107.999 9.5182 108.155 9.56218C108.979 9.76068 109.469 10.654 109.625 12.2416V12.5397C109.669 14.1493 108.4 15.1084 105.818 15.4172C105.506 14.2264 105.506 12.9915 105.818 11.7123Z" fill="#8E8E8E"/>
<path d="M42 18.0296C41.995 17.8931 41.888 17.7769 41.7501 17.7823C41.6447 17.7864 41.5853 17.8498 41.5853 17.8498C41.578 17.8564 41.5736 17.8625 41.5671 17.8699C41.53 17.9092 41.4874 17.965 41.4306 18.0619C41.1632 18.5028 40.7838 18.8797 40.3382 19.1885C39.2467 19.9162 38.0323 20.0043 36.696 19.4531C35.2257 18.8357 34.3013 17.6447 33.9227 15.8803L38.8013 15.3182C39.9818 15.1639 40.7394 14.6346 41.0733 13.7306C41.3631 12.8041 41.1626 11.9001 40.4717 11.0177C40.3608 10.8856 40.2268 10.7421 40.0711 10.588C38.9794 9.52969 37.5315 9 35.7269 9C33.9669 9 32.5191 9.38571 31.3832 10.1578C29.5785 11.4148 28.799 13.4216 29.0439 16.1783C29.0887 16.6411 29.1777 17.0605 29.3113 17.4353C29.5785 18.3613 30.0464 19.1885 30.7148 19.9162C32.0513 21.3056 33.7444 22 35.7935 22C39.1801 22 41.2075 20.8294 41.9875 18.1165C41.9875 18.1165 42.0006 18.0475 42 18.0296ZM33.8227 11.7123C34.1788 10.235 34.8025 9.49624 35.6935 9.49624C35.8494 9.49624 36.0057 9.51819 36.1614 9.56218C36.9857 9.76067 37.4753 10.654 37.6316 12.2416V12.5397C37.676 14.1493 36.4062 15.1084 33.8227 15.4172C33.5105 14.2264 33.5105 12.9915 33.8227 11.7123Z" fill="#8E8E8E"/>
<path d="M52.2411 9C51.8879 9 51.5118 9.06091 51.1016 9.17059C50.4521 9.3655 49.814 9.7919 49.1759 10.4255V9.4386C49.1759 9.38989 49.1806 9.32913 49.1515 9.27128C49.0662 9.10158 48.9139 9.09749 48.7657 9.2315C48.7159 9.27128 48.7087 9.2924 48.6517 9.32899C47.0451 10.6692 45.3017 11.3758 43.3988 11.4611H43.3418C43.3076 11.4611 43.2849 11.4733 43.2621 11.4855C43.1823 11.5342 43.1367 11.6195 43.1367 11.7048C43.1367 11.8144 43.1942 11.9148 43.3086 11.9504C43.3086 11.9504 43.3304 11.9606 43.3418 11.9606C43.4102 11.9728 43.4786 11.9972 43.5583 12.0215C44.4243 12.3139 44.8687 13.4105 44.8687 15.3355V18.5155C44.8687 19.1856 44.8231 19.7095 44.7434 20.1115C44.5497 20.9278 44.0597 21.3908 43.2507 21.5005C43.1253 21.5248 43.01 21.58 43 21.732C43 21.8637 43.0652 21.9806 43.2507 22H50.7826C50.9075 22 51.0277 21.9375 51.0333 21.732C51.0105 21.6223 51.0213 21.5638 50.7826 21.5005C50.6003 21.4639 50.4293 21.403 50.2584 21.3421C49.5406 21.0253 49.1759 20.0872 49.1759 18.5155V14.6411C49.1759 13.7516 49.2101 13.0328 49.2671 12.448C49.438 10.9738 49.9736 10.0844 50.8851 9.80411C51.0674 9.77979 51.2498 9.79191 51.4435 9.8285C51.9334 9.98689 52.1956 10.389 52.2183 11.0225C52.1956 11.2662 52.036 11.5099 51.7512 11.7535C51.3296 12.0703 51.1245 12.3992 51.1245 12.7526C51.1472 13.4105 51.5118 13.8613 52.2183 14.105C52.3323 14.1537 52.4576 14.1781 52.5829 14.1781C53.4718 14.2877 54.1326 13.9588 54.5656 13.179C55.0898 12.2287 55.1353 11.3149 54.7252 10.4255C54.2238 9.4752 53.4034 9 52.2411 9Z" fill="#8E8E8E"/>
<path d="M81.2367 9C80.8951 9 80.5078 9.06091 80.0978 9.17059C79.46 9.3655 78.8108 9.7919 78.173 10.4255L78.176 9.40595C78.176 9.4035 78.174 9.40298 78.1738 9.40075C78.1739 9.39859 78.176 9.39733 78.176 9.39517C78.176 9.25827 78.0722 9.14724 77.9442 9.14724C77.9072 9.14724 77.8803 9.17275 77.8493 9.18933C77.8361 9.18971 77.8308 9.18837 77.8151 9.18926C77.7793 9.2144 77.7124 9.27954 77.6491 9.32899C76.0432 10.6692 74.2892 11.3758 72.3758 11.4611C72.3408 11.467 72.3307 11.4707 72.2973 11.4852C72.2912 11.4879 72.2733 11.4977 72.2733 11.4977C72.205 11.5342 72.1481 11.6195 72.1481 11.7169C72.1481 11.8266 72.2065 11.911 72.3051 11.9447C72.3051 11.9447 72.3598 11.9667 72.3712 11.9667C72.447 11.9853 72.4783 11.9972 72.5581 12.0215C73.435 12.3139 73.8678 13.4105 73.8678 15.3355V18.5155C73.8678 19.1856 73.8223 19.7095 73.7425 20.1115C73.5489 20.9278 73.0592 21.3908 72.2505 21.5005C72.104 21.5204 72.0102 21.6046 72 21.7519C72.0227 21.8859 72.0391 21.9576 72.2505 22H79.7903C79.9216 21.9892 80.007 21.9378 80.0336 21.7571C80.0408 21.6239 79.9269 21.5492 79.7903 21.5005C79.5967 21.4639 79.4258 21.403 79.255 21.3421C78.5375 21.0253 78.173 20.0872 78.173 18.5155V14.6411C78.173 13.7516 78.2071 13.0328 78.2641 12.448C78.4349 10.9738 78.9703 10.0844 79.8814 9.80411C80.0636 9.7798 80.2459 9.79192 80.4395 9.8285C80.9292 9.9869 81.1912 10.389 81.2139 11.0225C81.1912 11.2662 81.0317 11.5099 80.747 11.7536C80.337 12.0703 80.1206 12.3992 80.1206 12.7526C80.1433 13.4105 80.5078 13.8613 81.2139 14.105C81.3392 14.1537 81.4645 14.1781 81.5784 14.1781C82.4668 14.2877 83.1387 13.9588 83.5715 13.179C84.0841 12.2287 84.141 11.3149 83.7196 10.4255C83.2299 9.47521 82.3985 9 81.2367 9Z" fill="#8E8E8E"/>
<path d="M13 18.0052C13 17.8686 12.8882 17.7579 12.7504 17.7579C12.7504 17.7579 12.6527 17.7549 12.5994 17.8145C12.5461 17.8741 12.5142 17.9263 12.5142 17.9263C12.2474 18.3672 11.7712 18.8797 11.3263 19.1885C10.2359 19.9162 9.02303 20.0044 7.68819 19.4531C6.21944 18.8357 5.29561 17.6447 4.91761 15.8803L9.79079 15.3182C10.9703 15.1639 11.7269 14.6346 12.0607 13.7306C12.3499 12.8041 12.1497 11.9001 11.4596 11.0177C11.3487 10.8856 11.215 10.7421 11.0593 10.588C9.96894 9.52969 8.52257 9 6.71998 9C4.96177 9 3.5154 9.38572 2.38027 10.1578C0.577895 11.4148 -0.201241 13.4216 0.0440525 16.1783C0.0882139 16.6411 0.177364 17.0605 0.311049 17.4353C0.577895 18.3613 1.04543 19.1885 1.71303 19.9162C3.04832 21.3056 4.73976 22 6.78674 22C10.1692 22 12.2134 20.7752 12.9921 18.0623L13 18.0052ZM4.8173 11.7123C5.1733 10.235 5.7963 9.49624 6.68621 9.49624C6.84228 9.49624 6.99805 9.51819 7.15374 9.56218C7.97749 9.76067 8.46694 10.654 8.62286 12.2416V12.5397C8.66725 14.1493 7.39881 15.1084 4.8173 15.4172C4.50547 14.2264 4.50547 12.9915 4.8173 11.7123Z" fill="#8E8E8E"/>
<path d="M24.8537 9.50347C25.8411 9.50934 26.0057 10.417 25.3506 12.2251L23.3797 17.667L21.1227 12.4936C21.0594 12.3146 21.0171 12.1804 20.9958 12.0909C20.466 10.6129 20.5684 9.75534 21.3098 9.50917C21.3269 9.50285 21.3493 9.49327 21.3633 9.48671C21.4641 9.44797 21.5416 9.36976 21.5416 9.25534C21.5416 9.16879 21.4982 9.10224 21.4352 9.05704C21.4352 9.05704 21.3598 9 21.2553 9L14.257 9.00021C14.2524 9.00081 14.2519 8.99952 14.2475 9.00021C14.2438 9.00005 14.2414 9.00021 14.2377 9.00021C14.1064 9.00021 14 9.11267 14 9.25134C14 9.3751 14.09 9.46587 14.2014 9.48666C14.2114 9.49194 14.2284 9.49123 14.2395 9.49628C14.3255 9.50777 14.4156 9.53811 14.543 9.60493C14.9029 9.87384 15.4752 10.8255 16.2595 12.46L19.8216 21.0122C20.0716 21.6124 20.6337 22 21.2543 22C21.9028 22 22.4842 21.5774 22.7162 20.9375L25.7645 12.5272C25.9548 11.9672 26.156 11.486 26.368 11.0831C26.94 10.0529 27.7425 9.52877 28.7811 9.50647C28.7914 9.50278 28.7949 9.50393 28.8033 9.49986C28.9155 9.47975 29 9.37963 29 9.25534C29 9.14144 28.9249 9.05431 28.8266 9.0235C28.8112 9.01529 28.7284 9.00186 28.7038 9.00021L24.8888 9C24.8697 9.00339 24.8183 9.00767 24.8032 9.01384C24.6967 9.03878 24.6103 9.13534 24.6103 9.25534C24.6103 9.39123 24.7135 9.49909 24.8412 9.50346L24.8537 9.50347Z" fill="#8E8E8E"/>
</g>
<defs>
<clipPath id="clip0_2422_2613">
<rect width="133" height="37" fill="white"/>
</clipPath>
</defs>
</svg>
