<svg width="138" height="37" viewBox="0 0 138 37" fill="none" xmlns="http://www.w3.org/2000/svg">
<g clip-path="url(#clip0_2422_1159)">
<path d="M26 20C25.4474 21.8013 24.7132 23.5516 23.7959 25.2114C23.3378 26.0413 22.8301 26.8506 22.2241 27.5929C21.6256 28.3377 20.9369 29.0321 20.1026 29.5573C19.7065 29.8114 19.1665 30.0538 18.6283 29.9895C18.0918 29.9419 17.6165 29.6986 17.2181 29.4062C16.421 28.8061 15.8353 28.0271 15.3146 27.2302C14.3128 25.6056 13.5592 23.8596 13 22.059C13.3806 22.9213 13.6956 23.4423 14.1352 24.2711C14.5658 25.1034 15.0345 25.9163 15.5674 26.6783C16.09 27.4407 16.6733 28.1826 17.4007 28.7064C17.7625 28.9634 18.1682 29.1517 18.5795 29.1796C18.9979 29.2183 19.3765 29.0737 19.7727 28.8301C20.5453 28.3588 21.2163 27.7079 21.8048 26.9943C22.3934 26.2785 22.922 25.5071 23.411 24.7106C24.3746 23.1073 25.2835 21.741 26 20Z" fill="#8E8E8E"/>
<path d="M12.2324 19C11.8801 18.2955 11.5467 17.5837 11.2158 16.8713C10.8831 16.1694 10.5255 15.4331 10.3299 14.6529C10.1196 13.8779 9.97485 13.0703 10.0036 12.239C10.0298 11.4152 10.2299 10.5441 10.7423 9.81374C11.2538 9.0814 12.0575 8.59607 12.867 8.347C13.666 8.09411 14.503 7.96429 15.3493 8.00855C16.1944 8.03864 16.9899 8.23575 17.7386 8.35447C18.488 8.48982 19.2211 8.53266 19.9637 8.46572L19.8883 8.47953C21.0038 8.20784 22.1074 8.09118 23.245 8.11416C24.3671 8.14548 25.5552 8.35047 26.5519 9.03074C27.0453 9.36838 27.4437 9.85506 27.6811 10.3957C27.9256 10.9368 28.0077 11.5202 27.9994 12.0822C27.9687 13.2099 27.6619 14.2773 27.2356 15.2767C27.4893 14.2237 27.6932 13.1454 27.595 12.098C27.5379 11.5799 27.4183 11.0741 27.179 10.6398C26.9446 10.2026 26.5909 9.85406 26.175 9.5977C25.3314 9.08287 24.2694 8.96186 23.2362 8.96122C22.1988 8.97232 21.1282 9.13747 20.1326 9.38219L20.0907 9.39247L20.057 9.396C19.2321 9.48257 18.3796 9.44002 17.5792 9.30391C16.777 9.16568 16.036 8.97502 15.304 8.94311C14.5766 8.90003 13.8334 8.99865 13.1249 9.19066C12.433 9.38148 11.8101 9.74333 11.3939 10.2914C10.9685 10.8331 10.7509 11.5429 10.6898 12.2782C10.6299 13.0156 10.6926 13.7811 10.8446 14.531C10.9215 14.9059 11.0146 15.2797 11.1238 15.6477L11.4953 16.7578C11.749 17.5023 12.0001 18.2476 12.2324 19Z" fill="#8E8E8E"/>
<path d="M27 22V18L24 20.5642L26.0125 20.2706L27 22Z" fill="#8E8E8E"/>
<path d="M28.799 37H8.20102C3.6789 37 0 33.3213 0 28.7992V8.20125C0 3.67913 3.6789 0 8.20102 0H28.799C33.3211 0 37 3.67913 37 8.20125V28.7992C37 33.3213 33.3211 37 28.799 37ZM8.20102 1.42132C4.46266 1.42132 1.42131 4.46289 1.42131 8.20125V28.7992C1.42131 32.5376 4.46266 35.5787 8.20102 35.5787H28.799C32.5373 35.5787 35.5787 32.5376 35.5787 28.7992V8.20125C35.5787 4.46289 32.5373 1.42132 28.799 1.42132H8.20102Z" fill="#8E8E8E"/>
<path d="M53.5084 15.3245C53.8361 15.7748 54 16.2585 54 16.7748C54 17.2195 53.8843 17.6429 53.653 18.0451C53.4217 18.4477 53.0875 18.7991 52.6508 19.0989C51.7515 19.6998 50.7045 20 49.5096 20C48.9186 20 48.3533 19.9219 47.8137 19.7657C47.2741 19.6099 46.7924 19.3874 46.3684 19.0989C45.636 18.5948 45.1928 17.9761 45.0387 17.2434L45.8673 16.8108C45.9058 17.4716 46.2528 18.0121 46.908 18.4325C47.2418 18.6729 47.6336 18.856 48.0835 18.9818C48.5331 19.108 49.0085 19.1713 49.5096 19.1713C50.5374 19.1713 51.4045 18.9249 52.1112 18.4325C52.7922 17.964 53.1327 17.4117 53.1327 16.7748C53.1327 16.4026 53.0075 16.0542 52.7569 15.7297C52.5064 15.4056 52.1562 15.1293 51.7065 14.9011C51.2826 14.6967 50.5244 14.5345 49.4325 14.4143C49.3425 14.4026 49.0182 14.3544 48.4594 14.2703C47.9003 14.1865 47.4217 14.0542 47.0235 13.8738C46.394 13.5857 45.8991 13.2043 45.5396 12.7297C45.1799 12.2555 45 11.7419 45 11.1892C45 10.7449 45.1187 10.3275 45.3567 9.93707C45.5941 9.547 45.9313 9.20129 46.3684 8.90106C46.7924 8.61258 47.2741 8.39045 47.8137 8.23427C48.3533 8.07847 48.9186 8 49.5096 8C50.7045 8 51.7515 8.30061 52.6508 8.90106C53.3958 9.42987 53.8327 10.0425 53.9613 10.7388L53.1327 11.1713C53.1197 10.8711 53.0267 10.583 52.8532 10.3063C52.6798 10.0303 52.4323 9.77786 52.1112 9.54966C51.7644 9.3097 51.366 9.12623 50.9166 9C50.4665 8.87415 49.9978 8.81084 49.5096 8.81084C49.0213 8.81084 48.5491 8.87415 48.0932 9C47.637 9.12623 47.2419 9.30971 46.908 9.54966C46.5736 9.77786 46.3168 10.0334 46.1371 10.3154C45.9571 10.5978 45.8673 10.8893 45.8673 11.1892C45.8673 11.5618 46.0148 11.931 46.3105 12.2972C46.606 12.6638 46.9721 12.9492 47.409 13.1531C47.6788 13.2733 47.9775 13.3605 48.3053 13.4143C48.6328 13.4685 49.0535 13.5258 49.5674 13.5857C49.6571 13.5978 49.8821 13.6278 50.2419 13.6759C50.6014 13.724 50.9484 13.79 51.2826 13.8738C51.6166 13.9583 51.8993 14.0603 52.1306 14.1801C52.7213 14.4928 53.1809 14.8738 53.5084 15.3245Z" fill="#8E8E8E"/>
<path d="M68 8V8.84907H62.9607V20H62.0589V8.84907H57V8L68 8Z" fill="#8E8E8E"/>
<path d="M76.0001 20C74.9177 20 73.9146 19.7323 72.9909 19.1958C72.0669 18.6601 71.3373 17.9308 70.8026 17.0091C70.2674 16.0875 70 15.0844 70 14C70 12.9156 70.2674 11.9125 70.8026 10.9909C71.3373 10.0692 72.0669 9.3403 72.9909 8.80418C73.9146 8.26806 74.9177 8 76.0001 8C77.0819 8 78.085 8.26806 79.0091 8.80418C79.9329 9.3403 80.6625 10.0692 81.1974 10.9909C81.7324 11.9125 82 12.9156 82 14C82 15.0844 81.7324 16.0875 81.1974 17.0091C80.6625 17.9308 79.9329 18.6601 79.0091 19.1958C78.085 19.7323 77.0819 20 76.0001 20ZM76.0001 8.83118C75.0636 8.83118 74.2004 9.0635 73.4103 9.527C72.6199 9.99087 71.9908 10.6175 71.5229 11.4065C71.0546 12.1958 70.8208 13.0605 70.8208 14C70.8208 14.9399 71.0546 15.8046 71.5229 16.5935C71.9908 17.3829 72.6199 18.0095 73.4103 18.473C74.2004 18.9369 75.0636 19.1688 76.0001 19.1688C76.9361 19.1688 77.7992 18.9369 78.5897 18.473C79.3798 18.0095 80.0058 17.3829 80.4681 16.5935C80.9301 15.8046 81.161 14.9399 81.161 14C81.161 13.0605 80.9301 12.1958 80.4681 11.4065C80.0058 10.6175 79.3798 9.99088 78.5897 9.527C77.7992 9.0635 76.9361 8.83118 76.0001 8.83118Z" fill="#8E8E8E"/>
<path d="M98.1268 20V10.6263L92.5388 18.1215L86.8732 10.6079V20H86V8L92.5388 16.6808L99 8V20H98.1268Z" fill="#8E8E8E"/>
<path d="M104.348 16.9908L102.924 20H102L107.657 8L113 20H112.094L110.744 16.9908H104.348ZM107.62 10.0243L104.736 16.1701H110.375L107.62 10.0243Z" fill="#8E8E8E"/>
<path d="M117.018 20L117 8H121.19C121.876 8 122.511 8.15381 123.095 8.46143C123.679 8.76906 124.142 9.18155 124.485 9.69814C124.828 10.2151 125 10.7814 125 11.3967C125 11.9999 124.828 12.5631 124.485 13.0859C124.142 13.6094 123.679 14.0247 123.095 14.3323C122.511 14.6399 121.876 14.7937 121.19 14.7937H117.831V20L117.018 20ZM117.831 13.926H121.19C121.731 13.926 122.231 13.8122 122.688 13.5846C123.146 13.357 123.51 13.049 123.781 12.6613C124.052 12.2737 124.187 11.8523 124.187 11.3967C124.187 10.929 124.052 10.5014 123.781 10.1137C123.51 9.7261 123.146 9.41848 122.688 9.19048C122.231 8.96287 121.731 8.84906 121.19 8.84906H117.813L117.831 13.926Z" fill="#8E8E8E"/>
<path d="M129.018 20L129 8H133.19C133.876 8 134.511 8.15381 135.095 8.46143C135.679 8.76906 136.142 9.18155 136.485 9.69814C136.828 10.2151 137 10.7814 137 11.3967C137 11.9999 136.828 12.5631 136.485 13.0859C136.142 13.6094 135.679 14.0247 135.095 14.3323C134.511 14.6399 133.876 14.7937 133.19 14.7937H129.831V20L129.018 20ZM129.831 13.926H133.19C133.731 13.926 134.231 13.8122 134.688 13.5846C135.146 13.357 135.51 13.049 135.781 12.6613C136.052 12.2737 136.187 11.8523 136.187 11.3967C136.187 10.929 136.052 10.5014 135.781 10.1137C135.51 9.7261 135.146 9.41848 134.688 9.19048C134.231 8.96287 133.731 8.84906 133.19 8.84906H129.813L129.831 13.926Z" fill="#8E8E8E"/>
<path d="M45.8537 27.7463L45.3361 29H45L47.0571 24L49 29H48.6706L48.1797 27.7463H45.8537ZM47.0437 24.8435L45.9951 27.4043H48.0453L47.0437 24.8435Z" fill="#8E8E8E"/>
<path d="M53.0068 29L53 24H54.5712C54.8285 24 55.0665 24.0642 55.2857 24.1922C55.5045 24.3203 55.6784 24.4923 55.8071 24.7074C55.9358 24.9229 56 25.1587 56 25.4152C56 25.6664 55.9358 25.9013 55.8071 26.119C55.6784 26.3372 55.5045 26.5101 55.2857 26.6381C55.0665 26.7666 54.8285 26.8308 54.5712 26.8308H53.3115V29L53.0068 29ZM53.3115 26.4692H54.5712C54.7743 26.4692 54.9616 26.4217 55.1332 26.3267C55.3049 26.2321 55.4414 26.1036 55.543 25.9422C55.6446 25.7807 55.6953 25.6052 55.6953 25.4152C55.6953 25.2203 55.6446 25.0421 55.543 24.8807C55.4414 24.7192 55.3048 24.5908 55.1332 24.4962C54.9616 24.4012 54.7743 24.3537 54.5712 24.3537H53.3047L53.3115 26.4692Z" fill="#8E8E8E"/>
<path d="M60.0068 29L60 24H61.5712C61.8285 24 62.0665 24.0642 62.2857 24.1922C62.5045 24.3203 62.6784 24.4923 62.8071 24.7074C62.9358 24.9229 63 25.1587 63 25.4152C63 25.6664 62.9358 25.9013 62.8071 26.119C62.6784 26.3372 62.5045 26.5101 62.2857 26.6381C62.0665 26.7666 61.8285 26.8308 61.5712 26.8308H60.3115V29L60.0068 29ZM60.3115 26.4692H61.5712C61.7743 26.4692 61.9616 26.4217 62.1332 26.3267C62.3049 26.2321 62.4414 26.1036 62.543 25.9422C62.6446 25.7807 62.6953 25.6052 62.6953 25.4152C62.6953 25.2203 62.6446 25.0421 62.543 24.8807C62.4414 24.7192 62.3048 24.5908 62.1332 24.4962C61.9616 24.4012 61.7743 24.3537 61.5712 24.3537H60.3047L60.3115 26.4692Z" fill="#8E8E8E"/>
<path d="M72 29V24H75V24.3537H72.3206V26.3232H74.4157V26.6843H72.3206V29L72 29Z" fill="#8E8E8E"/>
<path d="M80.5 29C80.0491 29 79.6312 28.8885 79.2463 28.665C78.8612 28.4415 78.5573 28.1379 78.3343 27.7538C78.1114 27.3696 78 26.9519 78 26.5002C78 26.0485 78.1114 25.6304 78.3343 25.2462C78.5573 24.8621 78.8612 24.5585 79.2463 24.335C79.6312 24.112 80.0491 24 80.5 24C80.9509 24 81.3688 24.112 81.7537 24.335C82.1386 24.5585 82.4427 24.8621 82.6657 25.2462C82.8884 25.6304 83 26.0485 83 26.5002C83 26.9519 82.8884 27.3696 82.6657 27.7538C82.4427 28.1379 82.1386 28.4415 81.7537 28.665C81.3688 28.8885 80.9509 29 80.5 29ZM80.5 24.3467C80.1099 24.3467 79.7502 24.4431 79.4211 24.6365C79.0915 24.8298 78.8295 25.0908 78.6346 25.4193C78.4394 25.7483 78.3419 26.1083 78.3419 26.5002C78.3419 26.8917 78.4394 27.2521 78.6346 27.5807C78.8295 27.9097 79.0915 28.1706 79.4211 28.364C79.7502 28.5569 80.1099 28.6538 80.5 28.6538C80.8901 28.6538 81.2496 28.5569 81.5789 28.364C81.9083 28.1706 82.1692 27.9097 82.3618 27.5807C82.5541 27.2521 82.6505 26.8917 82.6505 26.5002C82.6505 26.1083 82.5541 25.7483 82.3618 25.4193C82.1692 25.0908 81.9083 24.8298 81.5789 24.6365C81.2496 24.4431 80.8901 24.3467 80.5 24.3467Z" fill="#8E8E8E"/>
<path d="M89.5946 29L87.7704 26.4767H88.3109C88.6441 26.4767 88.9144 26.4283 89.1217 26.3306C89.2748 26.2488 89.4078 26.1243 89.5203 25.9576C89.6328 25.7909 89.6892 25.6074 89.6892 25.4077C89.6892 25.2282 89.6419 25.0575 89.5473 24.8961C89.4527 24.7346 89.3176 24.6027 89.1419 24.4997C88.9663 24.3972 88.7636 24.3462 88.5339 24.3462H87.304V29H87V24H88.5339C88.741 24 88.9346 24.037 89.1149 24.1113C89.295 24.1856 89.4527 24.2921 89.5879 24.4307C89.7186 24.564 89.8187 24.7153 89.8886 24.8847C89.9583 25.0536 89.9932 25.2282 89.9932 25.4077C89.9932 25.6897 89.9189 25.9422 89.7703 26.1652C89.6216 26.3883 89.446 26.5488 89.2433 26.646C89.1037 26.7178 88.9672 26.7626 88.8344 26.7807C88.7016 26.7987 88.5609 26.8075 88.4123 26.8075L90 29L89.5946 29Z" fill="#8E8E8E"/>
<path d="M100.49 29H99V24H100.49C100.857 24 101.196 24.0651 101.51 24.1962C101.823 24.3269 102.094 24.5129 102.323 24.7536C102.54 24.9845 102.708 25.2485 102.824 25.5458C102.941 25.8437 103 26.1591 103 26.4921C103 26.8255 102.941 27.1409 102.824 27.4383C102.708 27.7357 102.54 28.0027 102.323 28.2385C102.094 28.4844 101.823 28.6731 101.51 28.8038C101.196 28.9345 100.857 29 100.49 29ZM99.3585 28.6538H100.49C101.133 28.6538 101.656 28.436 102.06 28.0001C102.246 27.8052 102.388 27.5782 102.486 27.3191C102.584 27.06 102.633 26.7846 102.633 26.4921C102.633 26.2053 102.584 25.9321 102.486 25.673C102.388 25.4139 102.246 25.1873 102.06 24.992C101.651 24.5666 101.127 24.3537 100.49 24.3537H99.3585V28.6538Z" fill="#8E8E8E"/>
<path d="M106 29V24H109V24.3537H106.321V26.3232H108.409V26.6768H106.321V28.6384H109V29H106Z" fill="#8E8E8E"/>
<path d="M113.273 24.9715V28.9179H113V24L115.727 28.0208V24.0598H116V29L113.273 24.9715Z" fill="#8E8E8E"/>
<path d="M124 24V24.3537H122.168V29H121.84V24.3537H120V24H124Z" fill="#8E8E8E"/>
<path d="M127.854 27.7463L127.336 29H127L129.057 24L131 29H130.671L130.18 27.7463H127.854ZM129.044 24.8435L127.995 27.4043H130.045L129.044 24.8435Z" fill="#8E8E8E"/>
<path d="M135 29V24H135.329V28.6538H138V29L135 29Z" fill="#8E8E8E"/>
</g>
<defs>
<clipPath id="clip0_2422_1159">
<rect width="138" height="37" fill="white"/>
</clipPath>
</defs>
</svg>
