<svg width="262" height="86" viewBox="0 0 262 86" fill="none" xmlns="http://www.w3.org/2000/svg">
<path fill-rule="evenodd" clip-rule="evenodd" d="M248.348 17.8268C247.18 18 245.787 18 243 18H69.4C48.4015 18 37.9022 18 30.542 23.3475C28.165 25.0746 26.0746 27.165 24.3475 29.542C19 36.9022 19 47.4015 19 68.4V68C18.9975 70.1383 18.9779 71.329 18.8268 72.3477C17.7927 79.319 12.319 84.7927 5.34769 85.8268C4.18023 86 2.78682 86 0 86H19H31H50C47.2132 86 45.8198 86 44.6523 85.8268C37.681 84.7927 32.2073 79.319 31.1732 72.3477C31.0221 71.329 31.0028 70.1383 31.0004 68L31 58.8C31 46.8009 31 40.8013 34.0557 36.5954C35.0426 35.2371 36.2371 34.0426 37.5954 33.0557C41.8013 30 47.8009 30 59.8 30H243C245.787 30 247.18 30 248.348 30.1732C255.319 31.2073 260.793 36.681 261.827 43.6523C261.978 44.671 261.997 45.8617 262 48L262 30V18V0C261.998 2.13831 261.978 3.32902 261.827 4.34769C260.793 11.319 255.319 16.7927 248.348 17.8268Z" fill="white"/>
</svg>
