<svg width="185" height="97" viewBox="0 0 185 97" fill="none" xmlns="http://www.w3.org/2000/svg">
<g clip-path="url(#clip0_2530_3959)">
<path fill-rule="evenodd" clip-rule="evenodd" d="M185.001 29H184.999V38.8H185.001V67.8H184.998V67.6C184.998 55.6009 184.998 49.6013 182.573 45.3954C181.789 44.0371 180.84 42.8426 179.762 41.8557C177.768 40.0314 175.267 39.2962 171.547 39H52.154C42.6269 39 37.8632 39 34.5239 42.0557C33.4453 43.0426 32.4969 44.2371 31.7134 45.5954C29.2871 49.8013 29.2871 55.8008 29.2871 67.8V74.467C29.3637 82.3095 29.7496 86.8333 31.6944 90.2046C32.478 91.563 33.4264 92.7575 34.5049 93.7443C37.7556 96.7189 42.3559 96.7979 51.3862 96.8H29.2871H29.265H22.1212H22.1195H0C9.03022 96.7979 13.6305 96.7189 16.8813 93.7443C17.9598 92.7575 18.9082 91.563 19.6918 90.2046C22.118 85.9988 22.118 79.9992 22.118 68.0001V67.8H22.1212V69.6957C22.1412 53.6465 22.4068 45.1789 25.9105 39.1054C27.1347 36.983 28.6167 35.1166 30.3018 33.5746C35.5197 28.8 42.9628 28.8 57.8491 28.8H171.548C175.267 28.5037 177.768 27.7685 179.762 25.9443C180.84 24.9575 181.789 23.7629 182.573 22.4046C184.998 18.1988 184.998 12.1992 184.998 0.200035V0L185.001 2.32831e-10V29Z" fill="white"/>
</g>
<defs>
<clipPath id="clip0_2530_3959">
<rect width="185" height="97" fill="white"/>
</clipPath>
</defs>
</svg>
