<svg width="183" height="67" viewBox="0 0 183 67" fill="none" xmlns="http://www.w3.org/2000/svg">
<path d="M0.715572 23.0827C0.647167 23.1412 0.578731 23.1954 0.510219 23.2539C0.374568 23.3709 0.255077 23.1954 0.153041 22.7403C0.0510057 22.2809 -3.49109e-05 21.9384 -3.49109e-05 21.7088V21.3663C0.0510057 21.4248 0.102001 21.4832 0.153041 21.5375C0.204128 21.596 0.255077 21.6545 0.306163 21.7088C0.288707 21.0239 0.272548 20.3389 0.255077 19.6499C0.221507 18.2801 0.288707 17.2486 0.459239 16.5637C0.629695 15.8788 0.715572 15.361 0.715572 15.0185V14.5049C0.664577 14.5633 0.613521 14.6177 0.56126 14.6762C0.510219 14.7345 0.459239 14.7889 0.408199 14.8473C0.392055 14.2167 0.374584 13.5903 0.357204 12.9597C0.323589 11.7026 0.339748 10.7881 0.408199 10.2159C0.476665 9.64382 0.476665 9.18445 0.408199 8.84195C0.339748 8.49953 0.323589 7.35531 0.357204 5.41335C0.392055 3.46724 0.647136 2.26452 1.12384 1.8093C1.60176 1.34999 2.19793 1.06597 2.91358 0.949008C3.62919 0.836278 6.96968 0.777832 12.9351 0.777832C18.9004 0.777832 23.1271 0.836278 25.6163 0.949008C28.1042 1.06597 29.365 1.29568 29.3998 1.63808C29.4334 1.9806 29.6388 1.9806 30.0134 1.63808C30.388 1.29568 33.0129 1.12444 37.8867 1.12444C42.7617 1.12444 45.3182 1.23719 45.5572 1.46688C45.7949 1.69239 46.2554 1.69239 46.9374 1.46688C47.6194 1.23719 48.0787 1.34999 48.3177 1.8093C48.5566 2.26452 48.7097 2.95362 48.7782 3.86822C48.8118 4.32334 48.8466 4.78275 48.8802 5.24215C48.9486 5.06675 49.0171 4.89551 49.0844 4.72426C49.2213 4.38184 49.2213 3.86822 49.0844 3.1833C49.0171 2.83663 48.9486 2.49421 48.8802 2.15177C48.9486 2.03904 49.0171 1.9221 49.0844 1.8093C49.2213 1.57961 49.5797 1.52119 50.1584 1.63808C50.7384 1.75083 51.1304 1.69239 51.3346 1.46688C51.5387 1.23719 51.7777 1.23719 52.0502 1.46688C52.3228 1.69239 52.4597 1.98059 52.4597 2.32299V2.83663H52.5618C52.6302 2.83663 52.6812 2.6112 52.7148 2.15177C52.7496 1.69239 53.2438 1.46688 54.1984 1.46688C55.1518 1.46688 55.7317 1.69239 55.9358 2.15177C56.1412 2.6112 56.2096 3.12481 56.1412 3.69692C56.1063 3.98095 56.0727 4.26908 56.0392 4.55306H56.1922C56.2943 4.55306 56.3789 4.95395 56.4473 5.75577C56.5158 6.55344 56.6179 6.90004 56.7548 6.78316C56.8232 6.72889 56.8904 6.6704 56.9589 6.61188C56.8904 6.26946 56.8232 5.92702 56.7548 5.58455C56.6863 5.24215 56.6179 4.8955 56.5494 4.55306C56.6353 4.66999 56.7199 4.78275 56.8058 4.89551C56.8904 5.01244 56.9763 5.12517 57.0609 5.24215V4.21064H56.9079C56.8058 4.21064 56.6863 3.80973 56.5494 3.00788C56.4822 2.6112 56.4138 2.21021 56.3453 1.8093C56.4138 1.86779 56.4822 1.9221 56.5494 1.98059C56.6863 2.0933 56.7548 2.26452 56.7548 2.49421V2.83663C56.8394 2.7239 56.9252 2.6112 57.0099 2.49421C57.0958 2.38146 57.1804 2.26452 57.2663 2.15177C57.2314 2.38146 57.1979 2.6112 57.163 2.83663C57.0958 3.29606 57.0784 3.69692 57.1119 4.03939C57.1468 4.38184 57.2141 4.55306 57.3173 4.55306C57.4194 4.55306 57.4878 4.95395 57.5214 5.75577C57.5551 6.55344 57.6061 6.9543 57.6745 6.9543H57.7766V5.92702C57.8114 6.09829 57.845 6.26946 57.8799 6.44068C57.9471 6.78315 58.1014 6.9543 58.3392 6.9543H58.6976V5.24215H59.5153C59.4979 4.95395 59.4817 4.67 59.4643 4.38184C59.4307 3.80973 59.3448 3.52572 59.2091 3.52572C59.0722 3.52572 58.9875 3.29606 58.9527 2.83663C58.9191 2.38146 58.8681 2.15177 58.7996 2.15177C58.7312 2.15177 58.6627 2.38146 58.5956 2.83663C58.527 3.29606 58.425 3.52572 58.2881 3.52572C58.1524 3.52572 58.033 3.69692 57.9309 4.03939C57.8799 4.21064 57.8276 4.38184 57.7766 4.55306C57.8114 4.26908 57.845 3.98095 57.8799 3.69692C57.9135 3.40879 57.9471 3.12481 57.9819 2.83663C57.8799 2.89513 57.7766 2.95362 57.6745 3.00788C57.5725 3.06632 57.4704 3.12481 57.3684 3.1833C57.3845 2.89512 57.4019 2.61119 57.4194 2.32299C57.453 1.75083 57.8799 1.46688 58.6976 1.46688C59.5153 1.46688 59.9584 1.57961 60.0268 1.8093C60.0604 1.9221 60.0953 2.03904 60.1289 2.15177V1.8093C60.1289 1.57961 60.3504 1.40843 60.7935 1.29568C61.2365 1.1787 62.5496 1.1787 64.7314 1.29568C66.9119 1.40843 68.0196 1.69239 68.0544 2.15177C68.0881 2.6112 68.1565 2.83663 68.2586 2.83663H68.4117C68.3955 2.66546 68.3781 2.49421 68.3606 2.32299C68.3444 2.15177 68.327 1.98059 68.3096 1.8093C68.4801 1.75083 68.6506 1.69239 68.8211 1.63808C69.1621 1.52119 69.4173 1.63808 69.5878 1.98059C69.7583 2.32299 69.9462 2.32299 70.1504 1.98059C70.3557 1.63808 72.6731 1.46688 77.1044 1.46688C81.5357 1.46688 83.8708 1.52119 84.1093 1.63808C84.3479 1.75083 84.4842 1.9221 84.5183 2.15177C84.5354 2.26452 84.5525 2.38146 84.5695 2.49421C84.6206 2.32299 84.6718 2.15177 84.723 1.98059C84.8251 1.63808 87.6543 1.46688 93.2106 1.46688C98.7669 1.46688 102.022 1.52119 102.977 1.63808C103.931 1.75083 104.442 1.98059 104.51 2.32299C104.579 2.66546 104.664 2.78237 104.766 2.66546C104.817 2.6112 104.868 2.55271 104.919 2.49421C104.902 2.38146 104.885 2.26452 104.868 2.15177C104.851 2.03904 104.834 1.9221 104.817 1.8093H105.789C106.436 1.8093 106.777 1.9221 106.811 2.15177C106.845 2.38146 106.948 2.38146 107.118 2.15177C107.289 1.9221 108.686 1.8093 111.311 1.8093C113.936 1.8093 115.299 1.9221 115.401 2.15177C115.504 2.38146 115.623 2.49421 115.759 2.49421H115.964V1.8093H121.844C125.764 1.8093 127.809 1.86779 127.979 1.98059C128.15 2.0933 128.235 2.26452 128.235 2.49421V2.83663C128.286 2.66546 128.337 2.49421 128.388 2.32299C128.491 1.98059 130.059 1.8093 133.093 1.8093C136.126 1.8093 137.882 1.9221 138.359 2.15177C138.836 2.38146 139.416 2.4399 140.097 2.32299C140.779 2.21021 141.137 2.26452 141.171 2.49421C141.188 2.6112 141.205 2.7239 141.222 2.83663C141.256 2.7239 141.29 2.6112 141.325 2.49421C141.393 2.26452 141.546 2.26452 141.785 2.49421C141.904 2.6112 142.023 2.7239 142.143 2.83663V2.49421C142.143 2.26452 142.415 2.0933 142.961 1.98059C143.506 1.86779 143.966 1.9221 144.341 2.15177C144.716 2.38146 145.262 2.38146 145.977 2.15177C146.693 1.9221 147.324 1.9221 147.869 2.15177C148.415 2.38146 148.994 2.38146 149.608 2.15177C150.221 1.9221 151.125 1.9221 152.318 2.15177C153.511 2.38146 155.368 2.4399 157.891 2.32299C160.413 2.21021 161.794 2.26452 162.032 2.49421C162.271 2.7239 162.459 2.7239 162.595 2.49421C162.731 2.26452 164.947 2.15177 169.242 2.15177C173.537 2.15177 175.923 2.32299 176.4 2.66546C176.639 2.83663 176.877 3.00788 177.116 3.1833H176.605V4.21064C176.605 4.8955 176.724 5.35486 176.963 5.58455C177.201 5.81008 177.321 6.09829 177.321 6.44068V6.9543H177.576C177.747 6.9543 177.866 6.38219 177.934 5.24215C178.002 4.09784 178.139 3.40879 178.343 3.1833C178.548 2.95361 178.667 2.95361 178.701 3.1833C178.735 3.40879 178.905 3.52572 179.212 3.52572C179.519 3.52572 179.758 3.92664 179.928 4.72426C180.099 5.52613 180.303 6.15673 180.542 6.61188C180.78 7.07128 180.9 7.69771 180.9 8.49953V9.7023H181.206C181.121 9.75656 181.036 9.81504 180.951 9.87354C180.866 9.92775 180.78 9.98625 180.695 10.0447V9.35564H180.388V10.0447H179.979V9.35564H179.724C179.553 9.35564 179.434 8.78769 179.366 7.64339C179.298 6.49917 179.212 5.92702 179.11 5.92702C179.008 5.92702 178.922 5.52613 178.854 4.72426C178.786 3.92664 178.718 3.52572 178.65 3.52572H178.548V5.92702H178.752C178.718 6.49918 178.684 7.07128 178.65 7.64339C178.582 8.78769 178.582 9.58534 178.65 10.0447C178.718 10.5 178.837 10.7881 179.008 10.9009C179.093 10.9593 179.178 11.0178 179.263 11.0721V10.0447H179.519C179.69 10.0447 179.792 10.2159 179.826 10.5584C179.843 10.7296 179.86 10.9009 179.877 11.0721C179.775 11.189 179.673 11.3017 179.57 11.4145C179.366 11.6442 179.263 11.8739 179.263 12.1036V12.446H179.673V13.4734H180.388C180.371 13.8742 180.354 14.2751 180.337 14.6762C180.303 15.4779 180.388 15.9916 180.593 16.2213C180.797 16.451 180.9 16.6765 180.9 16.9062V17.2486H180.184C180.218 17.5368 180.252 17.8207 180.286 18.1089C180.32 18.3928 180.354 18.681 180.388 18.965C180.286 18.9065 180.184 18.8523 180.082 18.7938C179.877 18.681 179.758 18.7938 179.724 19.1362C179.707 19.3074 179.69 19.4787 179.673 19.6499H179.979C179.962 19.938 179.945 20.222 179.928 20.5102C179.911 20.7942 179.894 21.0824 179.877 21.3663C179.843 21.4248 179.809 21.4832 179.775 21.5375C179.707 21.6545 179.69 21.9384 179.724 22.3978C179.741 22.6275 179.758 22.853 179.775 23.0827C179.809 22.97 179.843 22.853 179.877 22.7403C179.945 22.5106 179.962 22.2266 179.928 21.88C179.911 21.7088 179.894 21.5375 179.877 21.3663C179.962 21.312 180.047 21.2536 180.133 21.1951C180.218 21.1366 180.303 21.0824 180.388 21.0239V23.0827H180.695V23.9388C180.695 24.5109 180.78 24.9703 180.951 25.3128C181.036 25.484 181.121 25.6552 181.206 25.8265C181.07 25.7722 180.934 25.7137 180.797 25.6552C180.525 25.5424 180.388 25.1416 180.388 24.4566V23.4251C180.354 23.5421 180.32 23.6549 180.286 23.7676C180.218 23.9973 180.099 24.0557 179.928 23.9388C179.843 23.8845 179.758 23.826 179.673 23.7676V24.7991H180.184V25.484C180.064 25.3712 179.945 25.2543 179.826 25.1416C179.707 25.0288 179.587 24.9118 179.468 24.7991V25.3128C179.468 25.6552 179.536 25.9434 179.673 26.1731C179.809 26.3986 179.911 27.2004 179.979 28.5743C180.013 29.2592 180.047 29.9441 180.082 30.6332C179.979 30.5747 179.877 30.5163 179.775 30.4619C179.57 30.3451 179.434 30.6875 179.366 31.4893C179.298 32.2911 179.332 32.8048 179.468 33.0345C179.604 33.2642 179.673 33.6066 179.673 34.0618V34.7509H179.979C179.928 34.8052 179.877 34.8636 179.826 34.9221C179.724 35.0349 179.638 35.3773 179.57 35.9495C179.502 36.5216 179.587 36.981 179.826 37.3234C179.945 37.4946 180.064 37.6659 180.184 37.8371C180.099 38.3508 180.013 38.8686 179.928 39.3822C179.843 39.8959 179.758 40.4097 179.673 40.9274H179.826C179.928 40.9274 180.03 41.5539 180.133 42.815C180.235 44.0721 180.269 45.3876 180.235 46.7574C180.201 48.1314 180.099 48.9874 179.928 49.3341C179.758 49.6765 179.604 49.618 179.468 49.1629C179.4 48.9331 179.332 48.7035 179.263 48.4738V50.1901H178.957V51.5642H179.11C179.212 51.5642 179.28 51.965 179.315 52.7627C179.332 53.1636 179.349 53.5645 179.366 53.9654C179.468 53.907 179.57 53.8485 179.673 53.7942C179.775 53.7357 179.877 53.6773 179.979 53.623V55.6819H180.286C180.235 55.7361 180.184 55.7946 180.133 55.8531C180.03 55.9658 179.979 56.254 179.979 56.7092V57.3941H180.337C180.576 57.3941 180.729 57.511 180.797 57.7407C180.832 57.8534 180.866 57.9662 180.9 58.0831C180.917 57.9662 180.934 57.8534 180.951 57.7407C180.985 57.511 180.934 57.1101 180.797 56.5379C180.729 56.254 180.661 55.9658 180.593 55.6819H181.309C181.292 56.0827 181.275 56.4795 181.258 56.8804C181.24 57.2813 181.223 57.6822 181.206 58.0831C181.377 58.0247 181.547 57.9662 181.718 57.9119C182.059 57.795 182.246 58.0247 182.28 58.5968C182.314 59.1689 182.28 59.5114 182.178 59.6283C182.076 59.741 182.059 60.8853 182.127 63.057C182.195 65.2327 182.195 66.4313 182.127 66.661C182.059 66.8907 181.803 66.945 181.36 66.8321C180.917 66.7194 180.661 66.2015 180.593 65.287C180.525 64.3725 180.542 63.746 180.644 63.3994C180.746 63.057 180.866 62.8857 181.002 62.8857H181.206V63.9172H181.922V61.1693C181.854 61.2862 181.786 61.399 181.718 61.5118C181.65 61.6287 181.581 61.7415 181.513 61.8584C181.53 61.6287 181.547 61.399 181.564 61.1693C181.581 60.9438 181.598 60.7141 181.615 60.4844C181.547 60.5972 181.479 60.7141 181.411 60.8269C181.275 61.0565 181.155 60.9981 181.053 60.6556C180.951 60.3132 180.814 60.2547 180.644 60.4844C180.474 60.7141 180.354 61.0565 180.286 61.5118C180.252 61.7415 180.218 61.9711 180.184 62.2008C180.116 61.9711 180.047 61.7415 179.979 61.5118C179.911 61.2862 179.843 61.0565 179.775 60.8269C179.758 61.1693 179.741 61.5118 179.724 61.8584C179.69 62.5433 179.417 62.773 178.905 62.5433C178.65 62.4306 178.394 62.3136 178.139 62.2008C178.181 62.5834 178.224 62.9661 178.267 63.3487C176.673 63.3304 174.271 63.3795 172.057 63.8234C171.876 63.7427 171.722 63.7736 171.594 63.9172C171.591 63.92 171.589 63.9219 171.587 63.9246C171.477 63.95 171.367 63.9761 171.258 64.0036C171.249 63.9795 171.241 63.952 171.236 63.9172C171.202 63.6876 171.134 63.6291 171.031 63.746C170.98 63.8003 170.929 63.8587 170.878 63.9172C170.861 63.746 170.844 63.5706 170.827 63.3994C170.81 63.2281 170.793 63.057 170.776 62.8857C170.725 63.057 170.673 63.2281 170.622 63.3994C170.52 63.746 170.35 63.9715 170.111 64.0884C169.872 64.2012 169.497 64.2012 168.986 64.0884C168.475 63.9715 168.202 63.8003 168.168 63.5706C168.134 63.3451 167.674 63.3451 166.788 63.5706C165.901 63.8003 165.424 63.8587 165.356 63.746C165.288 63.6291 165.254 63.1738 165.254 62.3721V61.1693H165.049V62.0296C165.049 62.6017 164.998 63.057 164.896 63.3994C164.793 63.746 164.538 63.9172 164.129 63.9172C163.72 63.9172 163.481 63.8003 163.413 63.5706C163.345 63.3451 163.225 63.3451 163.055 63.5706C162.885 63.8003 162.288 63.9172 161.265 63.9172C160.243 63.9172 159.527 63.8587 159.118 63.746C158.709 63.6291 158.504 63.3451 158.504 62.8857V62.2008C158.351 62.4848 158.198 62.773 158.044 63.057C157.737 63.6291 157.141 63.9172 156.255 63.9172H154.925V62.8857C154.84 63.057 154.755 63.2281 154.67 63.3994C154.499 63.746 153.852 63.9172 152.727 63.9172C151.602 63.9172 150.852 63.8587 150.477 63.746C150.102 63.6291 149.863 63.3451 149.761 62.8857C149.659 62.4306 149.608 61.9127 149.608 61.3405V60.4844H149.505C149.437 60.4844 149.386 60.7141 149.352 61.1693C149.335 61.399 149.318 61.6287 149.301 61.8584C149.267 61.7415 149.233 61.6287 149.199 61.5118C149.13 61.2862 148.977 61.1693 148.738 61.1693H148.381V61.6871C148.381 62.0296 148.517 62.2551 148.79 62.3721C148.926 62.4306 149.062 62.4848 149.199 62.5433C149.182 62.773 149.164 62.9985 149.147 63.2281C149.13 63.4578 149.113 63.6876 149.096 63.9172C149.028 63.8003 148.96 63.6876 148.892 63.5706C148.756 63.3451 148.568 63.3451 148.329 63.5706C148.091 63.8003 147.256 63.9172 145.824 63.9172C144.392 63.9172 143.66 63.6876 143.625 63.2281C143.608 62.9985 143.591 62.773 143.574 62.5433C143.489 62.773 143.404 62.9985 143.319 63.2281C143.148 63.6876 141.955 63.8003 139.739 63.5706C137.524 63.3451 136.246 63.3451 135.905 63.5706C135.564 63.8003 135.035 63.8003 134.32 63.5706C133.604 63.3451 131.252 63.3451 127.264 63.5706C123.275 63.8003 120.003 63.8587 117.446 63.746C114.89 63.6291 113.595 63.4578 113.561 63.2281C113.544 63.1154 113.527 62.9985 113.509 62.8857C113.458 62.9985 113.407 63.1154 113.356 63.2281C113.254 63.4578 112.674 63.5706 111.618 63.5706C110.561 63.5706 109.998 63.4578 109.93 63.2281C109.862 62.9985 109.76 62.9985 109.624 63.2281C109.487 63.4578 108.959 63.5706 108.038 63.5706C107.118 63.5706 106.539 63.5163 106.3 63.3994C106.061 63.2866 105.874 62.9442 105.738 62.3721C105.601 61.7999 105.482 61.5118 105.38 61.5118H105.226C105.294 61.7415 105.363 61.9711 105.431 62.2008C105.567 62.656 105.618 62.9985 105.584 63.2281C105.55 63.4578 103.948 63.5706 100.778 63.5706C97.6078 63.5706 95.9375 63.4578 95.7671 63.2281C95.5967 62.9985 95.4092 62.9985 95.2047 63.2281C95.0002 63.4578 94.0116 63.5706 92.2391 63.5706C90.4665 63.5706 89.4269 63.4578 89.1201 63.2281C88.8133 62.9985 88.2338 62.9985 87.3816 63.2281C86.5295 63.4578 85.9841 63.4578 85.7455 63.2281C85.5069 62.9985 85.166 62.9985 84.723 63.2281C84.2797 63.4578 83.9559 63.4578 83.7514 63.2281C83.5469 62.9985 83.3252 62.9985 83.0867 63.2281C82.8481 63.4578 82.3368 63.4578 81.5528 63.2281C80.7688 62.9985 79.1837 62.9442 76.7976 63.057C74.4116 63.1738 73.1162 63.057 72.9117 62.7145C72.7073 62.3721 72.5197 62.3721 72.3493 62.7145C72.1788 63.057 71.9743 63.1154 71.7358 62.8857C71.4971 62.656 71.2756 62.656 71.071 62.8857C70.8665 63.1154 70.3719 63.2281 69.5878 63.2281C68.8037 63.2281 68.2934 63.1738 68.0544 63.057C67.8155 62.9442 67.6288 62.4848 67.4919 61.6871C67.4234 61.2862 67.355 60.8853 67.2878 60.4844C67.2529 60.7684 67.2193 61.0565 67.1844 61.3405C67.1173 61.9127 66.9977 62.3136 66.8273 62.5433C66.6568 62.773 66.4863 62.773 66.3158 62.5433C66.1452 62.3136 66.0257 62.3721 65.9585 62.7145C65.8901 63.057 65.1745 63.1738 63.8104 63.057C62.4476 62.9442 61.6971 62.4848 61.5602 61.6871C61.4245 60.8853 61.3225 60.4844 61.254 60.4844H61.1519V61.1693C61.1519 61.6287 61.0325 61.9127 60.7935 62.0296C60.5557 62.1424 60.4189 62.3136 60.3853 62.5433C60.3504 62.773 60.2147 62.773 59.9758 62.5433C59.7368 62.3136 59.3958 62.3721 58.9527 62.7145C58.5096 63.057 58.2371 63.1154 58.135 62.8857C58.033 62.656 57.743 62.6017 57.2663 62.7145C56.7884 62.8272 56.5332 62.6017 56.4984 62.0296C56.4648 61.4575 56.4473 61.0565 56.4473 60.8269C56.4473 60.5972 56.5332 60.3716 56.7038 60.142C56.8743 59.9123 56.9415 59.5114 56.9079 58.9393C56.8904 58.6553 56.8742 58.3671 56.8568 58.0831C57.0099 58.1416 57.163 58.1959 57.3173 58.2544C57.4704 58.3128 57.6235 58.3671 57.7766 58.4256C57.743 58.2544 57.7094 58.0831 57.6745 57.9119C57.6409 57.7407 57.6061 57.5695 57.5725 57.3941C57.6235 57.511 57.6745 57.6238 57.7256 57.7407C57.7766 57.8534 57.8276 57.9662 57.8799 58.0831C57.896 57.795 57.9135 57.511 57.9309 57.2228C57.9646 56.6507 58.033 56.3668 58.135 56.3668H58.2881V57.3941C58.323 57.3398 58.3566 57.2813 58.3902 57.2228C58.4586 57.1101 58.527 56.7092 58.5956 56.0243C58.6291 55.6819 58.6627 55.3352 58.6976 54.9927C58.5096 55.0512 58.323 55.1097 58.135 55.164C57.9471 55.2224 57.7604 55.2809 57.5725 55.3352C57.6061 55.1097 57.6409 54.88 57.6745 54.6503C57.7094 54.4206 57.743 54.1951 57.7766 53.9654H57.4704V54.4791C57.4704 54.8215 57.4194 55.1097 57.3173 55.3352C57.2141 55.5649 57.0609 55.6819 56.8568 55.6819H56.5494V56.3668C56.4822 56.254 56.4138 56.1371 56.3453 56.0243C56.2768 55.9073 56.2096 55.7946 56.1412 55.6819V57.3941H56.7548C56.7373 57.511 56.7199 57.6238 56.7038 57.7407C56.6689 57.9662 56.5669 58.0247 56.3963 57.9119C56.3117 57.8534 56.2258 57.795 56.1412 57.7407C56.1748 58.3671 56.2096 58.9977 56.2433 59.6283C56.2768 60.2547 56.3117 60.8853 56.3453 61.5118H56.0392V61.8584C56.0392 62.0839 56.0727 62.3136 56.1412 62.5433C56.1748 62.656 56.2096 62.773 56.2433 62.8857C56.0902 62.9442 55.9358 62.9985 55.7828 63.057C55.4766 63.1738 55.1181 63.1738 54.7086 63.057C54.3004 62.9442 54.044 62.3136 53.942 61.1693C53.84 60.025 53.9084 59.2817 54.1473 58.9393C54.2656 58.768 54.385 58.5968 54.5046 58.4256C54.4535 58.2544 54.4025 58.0831 54.3515 57.9119C54.2494 57.5695 54.1125 57.511 53.942 57.7407C53.7714 57.9662 53.6869 58.484 53.6869 59.2817V60.4844C53.5848 60.4259 53.4815 60.3716 53.3794 60.3132C53.2774 60.2547 53.1753 60.1963 53.0732 60.142C53.0907 59.9123 53.1068 59.6826 53.1243 59.4529C53.1417 59.2274 53.1579 58.9977 53.1753 58.768H52.9712V59.7995H52.7658C52.7833 60.1963 52.8007 60.5972 52.8169 60.9981C52.8343 61.399 52.8517 61.7999 52.8679 62.2008H52.7658V60.4844H52.0502C52.0851 60.1963 52.1186 59.9123 52.1523 59.6283C52.1871 59.3402 52.2207 59.0562 52.2556 58.768C52.2892 58.885 52.3228 58.9977 52.3576 59.1104C52.3912 59.2274 52.4248 59.3402 52.4597 59.4529C52.4933 59.3402 52.5281 59.2274 52.5618 59.1104C52.6302 58.885 52.6638 58.5968 52.6638 58.2544V57.7407C52.5953 57.795 52.5281 57.8534 52.4597 57.9119C52.3912 57.9662 52.3228 58.0247 52.2556 58.0831C52.2717 57.795 52.2892 57.511 52.3066 57.2228C52.3402 56.6507 52.3228 56.254 52.2556 56.0243C52.2207 55.9073 52.1871 55.7946 52.1523 55.6819V56.3668C52.1523 56.8261 52.0676 57.2228 51.8971 57.5695C51.7266 57.9119 51.6419 58.3128 51.6419 58.768V59.4529C51.6071 59.2817 51.5735 59.1104 51.5387 58.9393C51.4715 58.5968 51.352 58.484 51.1815 58.5968C51.011 58.7095 50.9251 58.885 50.9251 59.1104V59.4529C50.8741 59.3402 50.823 59.2274 50.772 59.1104C50.721 58.9977 50.6699 58.885 50.6189 58.768C50.6525 59.0562 50.6874 59.3402 50.721 59.6283C50.7546 59.9123 50.7894 60.1963 50.823 60.4844C50.8579 60.3716 50.8915 60.2547 50.9251 60.142C50.9935 59.9123 51.1466 59.9123 51.3856 60.142C51.6245 60.3716 51.795 60.8269 51.8971 61.5118C51.9482 61.8584 51.9992 62.2008 52.0502 62.5433C51.6756 62.656 51.301 62.773 50.9251 62.8857C50.1759 63.1154 49.6817 63.2281 49.4428 63.2281C49.2038 63.2281 48.9486 62.9985 48.6761 62.5433C48.4035 62.0839 48.233 62.0296 48.1646 62.3721C48.131 62.5433 48.0961 62.7145 48.0625 62.8857C48.0115 62.773 47.9605 62.656 47.9094 62.5433C47.8062 62.3136 47.6531 62.3721 47.4489 62.7145C47.2436 63.057 47.0569 63.057 46.8864 62.7145C46.7159 62.3721 46.5964 62.3136 46.5279 62.5433C46.4607 62.773 46.2044 62.773 45.7612 62.5433C45.3182 62.3136 45.0282 62.3136 44.8925 62.5433C44.7556 62.773 44.4146 62.8857 43.8695 62.8857H43.0518V62.2008C42.9497 62.2551 42.8464 62.3136 42.7444 62.3721C42.6423 62.4306 42.5402 62.4848 42.4382 62.5433C42.4544 62.3721 42.4718 62.2008 42.4892 62.0296C42.5066 61.8584 42.5228 61.6871 42.5402 61.5118C42.3361 61.7415 42.1308 61.9711 41.9267 62.2008C41.5172 62.656 41.16 62.8857 40.8526 62.8857H40.3921V62.2008C40.3585 62.3136 40.3249 62.4306 40.29 62.5433C40.2228 62.773 40.1033 62.773 39.9328 62.5433C39.7623 62.3136 39.6428 62.3136 39.5744 62.5433C39.5059 62.773 39.2844 62.8857 38.9097 62.8857C38.5351 62.8857 38.3298 62.773 38.2962 62.5433C38.2625 62.3136 38.041 62.3136 37.6315 62.5433C37.2221 62.773 36.9843 62.773 36.9159 62.5433C36.8474 62.3136 36.6595 62.2551 36.3533 62.3721C36.2003 62.4306 36.046 62.4848 35.8928 62.5433C35.9277 62.3721 35.9613 62.2008 35.9949 62.0296C36.0298 61.8584 36.0634 61.6871 36.0982 61.5118C35.9277 61.7415 35.7572 61.9711 35.5867 62.2008C35.2457 62.656 34.4105 62.8857 33.0813 62.8857C31.7521 62.8857 31.0701 62.773 31.0352 62.5433C31.0016 62.3136 30.8485 62.3136 30.576 62.5433C30.3034 62.773 30.098 62.7145 29.9624 62.3721C29.8254 62.0296 29.5865 61.9711 29.2467 62.2008C29.0762 62.3136 28.9057 62.4306 28.7352 62.5433C28.7688 62.3721 28.8036 62.2008 28.8372 62.0296C28.8708 61.8584 28.9057 61.6871 28.9393 61.5118H28.4278V61.8584C28.4278 62.0839 28.2747 62.3136 27.9673 62.5433C27.6611 62.773 27.4906 62.773 27.457 62.5433C27.4396 62.4306 27.4222 62.3136 27.406 62.2008C27.457 62.1424 27.508 62.0839 27.559 62.0296C27.6611 61.9127 27.7457 61.5118 27.8142 60.8269C27.849 60.4844 27.8826 60.142 27.9163 59.7995H27.406V61.5118H27.1496C26.9791 61.5118 26.8596 61.6871 26.7924 62.0296C26.7239 62.3721 26.6045 62.4848 26.4339 62.3721C26.2635 62.2551 26.1614 61.9127 26.1277 61.3405C26.1104 61.0565 26.0929 60.7684 26.0755 60.4844V61.1693C26.0755 61.6287 25.9573 62.0296 25.7183 62.3721C25.4793 62.7145 24.9517 62.8857 24.1327 62.8857C23.315 62.8857 22.8719 62.773 22.8034 62.5433C22.735 62.3136 22.6168 62.3136 22.4462 62.5433C22.2758 62.773 21.8663 62.8857 21.219 62.8857C20.5707 62.8857 20.145 62.8272 19.9408 62.7145C19.7355 62.6017 19.616 62.3136 19.5824 61.8584C19.5488 61.399 19.4978 61.1693 19.4293 61.1693C19.3609 61.1693 19.3099 61.399 19.2763 61.8584C19.2414 62.3136 19.1058 62.6017 18.8668 62.7145C18.6278 62.8272 17.9296 62.8857 16.7709 62.8857C15.6109 62.8857 14.9463 62.773 14.7758 62.5433C14.6053 62.3136 14.4696 61.9127 14.3675 61.3405C14.3166 61.0565 14.2642 60.7684 14.2132 60.4844C14.1286 60.7684 14.0428 61.0565 13.9581 61.3405C13.7876 61.9127 13.5997 62.3136 13.3955 62.5433C13.1915 62.773 12.7994 62.773 12.2194 62.5433C11.6407 62.3136 11.3332 61.9711 11.2996 61.5118C11.2822 61.2862 11.2648 61.0565 11.2486 60.8269C11.1976 61.0565 11.1453 61.2862 11.0943 61.5118C10.9922 61.9711 10.7545 62.3136 10.3787 62.5433C10.004 62.773 9.44148 62.8857 8.69226 62.8857C7.94175 62.8857 7.46507 62.7145 7.25968 62.3721C7.05557 62.0296 6.88505 61.9711 6.74818 62.2008C6.61253 62.4306 6.25407 62.4306 5.67533 62.2008C5.09535 61.9711 4.65226 61.9711 4.34606 62.2008C4.03869 62.4306 3.40769 62.4848 2.45431 62.3721C1.49969 62.2551 0.886119 62.0296 0.613536 61.6871C0.339748 61.3405 0.186672 60.9438 0.153041 60.4844C0.118205 60.025 0.153041 59.6283 0.255077 59.2817C0.306163 59.1104 0.357204 58.9393 0.408199 58.768C0.339748 58.7095 0.272548 58.6553 0.204128 58.5968C0.0672106 58.484 0.0672106 57.2813 0.204128 54.9927C0.339733 52.7084 0.339733 48.1898 0.204128 41.4411C0.0672106 34.6924 0.0510057 30.8044 0.153041 29.7729C0.255077 28.7456 0.288707 27.8853 0.255077 27.2004C0.237666 26.858 0.221507 26.5155 0.204128 26.1731C0.255077 26.2274 0.306163 26.2858 0.357204 26.3443C0.408199 26.3986 0.459224 26.4571 0.510219 26.5155V25.484H0.919719V24.7991C0.835094 24.8575 0.749202 24.9118 0.664577 24.9703C0.49409 25.083 0.374584 25.0288 0.306163 24.7991C0.237666 24.5694 0.204128 24.3397 0.204128 24.1142V23.7676H0.715572V23.0827Z" fill="#204FF5"/>
</svg>
