<svg width="34" height="34" viewBox="0 0 34 34" fill="none" xmlns="http://www.w3.org/2000/svg">
<g id="Frame 956" clip-path="url(#clip0_2471_1691)">
<g id="Layer 23">
<path id="Vector" d="M29 22V23.7266C29 26.2294 24.0667 29 17 29C9.93333 29 5 26.2294 5 23.7266V22C7.76 24.0344 12.2267 25.239 17 25.239C21.7733 25.239 26.2533 24.0344 29 22Z" fill="#0B62E4"/>
<path id="Vector_2" d="M29 15V16.7365C28.9308 17.2655 28.7437 17.7717 28.4527 18.2171C28.1617 18.6624 27.7744 19.0353 27.32 19.3077C25.0667 21.0173 21.2133 22 17 22C12.7867 22 9 20.9769 6.66667 19.3077C6.21601 19.0323 5.83232 18.6584 5.54386 18.2134C5.25541 17.7684 5.06955 17.2637 5 16.7365V15.0269C8.58148 17.3109 12.7676 18.438 17 18.2577C21.2326 18.4071 25.4124 17.2724 29 15Z" fill="#0B62E4"/>
<path id="Vector_3" d="M29 10.5C28.9413 11.2861 28.5921 12.0172 28.0267 12.5381C26.0267 14.632 21.6933 16 17 16C9.93333 16 5 13.0964 5 10.5C5 7.90355 9.93333 5 17 5C24.0667 5 29 7.88959 29 10.5Z" fill="#0B62E4"/>
</g>
</g>
<defs>
<clipPath id="clip0_2471_1691">
<rect width="34" height="34" fill="white"/>
</clipPath>
</defs>
</svg>
