<svg width="177" height="27" viewBox="0 0 177 27" fill="none" xmlns="http://www.w3.org/2000/svg">
<rect x="11" width="149" height="21" fill="#F3F4F6"/>
<path d="M123.194 13.7547H57.1364C50.9726 13.7547 45.0676 11.2764 40.75 6.87736C36.4324 2.47832 30.5274 0 24.3636 0H13.5C6.04416 0 0 6.04416 0 13.5C0 20.9558 6.04415 27 13.5 27H163.5C170.956 27 177 20.9558 177 13.5C177 6.04416 170.956 0 163.5 0H151.806C146.24 0 140.976 2.53055 137.5 6.87736C134.024 11.2242 128.76 13.7547 123.194 13.7547Z" fill="white"/>
<rect x="68" y="1" width="41" height="4" rx="2" fill="white"/>
</svg>
